<?xml version="1.0" encoding="UTF-8"?>
<svg version="1.1" xmlns="http://www.w3.org/2000/svg" width="348" height="348">
<path d="M0 0 C13.86 0 27.72 0 42 0 C42 0.66 42 1.32 42 2 C46.62 2 51.24 2 56 2 C56 2.66 56 3.32 56 4 C58.64 4 61.28 4 64 4 C64 4.66 64 5.32 64 6 C66.64 6 69.28 6 72 6 C72 6.66 72 7.32 72 8 C73.98 8 75.96 8 78 8 C78 8.66 78 9.32 78 10 C79.98 10 81.96 10 84 10 C84 10.66 84 11.32 84 12 C85.32 12 86.64 12 88 12 C88 12.66 88 13.32 88 14 C89.32 14 90.64 14 92 14 C92 14.66 92 15.32 92 16 C93.98 16 95.96 16 98 16 C98 16.66 98 17.32 98 18 C98.66 18 99.32 18 100 18 C100 18.66 100 19.32 100 20 C101.32 20 102.64 20 104 20 C104 20.66 104 21.32 104 22 C105.32 22 106.64 22 108 22 C108 22.66 108 23.32 108 24 C108.66 24 109.32 24 110 24 C110 24.66 110 25.32 110 26 C111.32 26 112.64 26 114 26 C114 26.66 114 27.32 114 28 C114.66 28 115.32 28 116 28 C116 28.66 116 29.32 116 30 C117.32 30 118.64 30 120 30 C120 30.66 120 31.32 120 32 C120.66 32 121.32 32 122 32 C122 32.66 122 33.32 122 34 C123.32 34 124.64 34 126 34 C126 34.66 126 35.32 126 36 C126.66 36 127.32 36 128 36 C128 36.66 128 37.32 128 38 C128.66 38 129.32 38 130 38 C130 38.66 130 39.32 130 40 C130.66 40 131.32 40 132 40 C132 40.66 132 41.32 132 42 C132.66 42 133.32 42 134 42 C134 42.66 134 43.32 134 44 C135.32 44 136.64 44 138 44 C138 44.66 138 45.32 138 46 C138.66 46 139.32 46 140 46 C140 46.66 140 47.32 140 48 C140.66 48 141.32 48 142 48 C142 48.66 142 49.32 142 50 C142.66 50 143.32 50 144 50 C144 50.66 144 51.32 144 52 C144.66 52 145.32 52 146 52 C146 53.32 146 54.64 146 56 C146.66 56 147.32 56 148 56 C148 56.66 148 57.32 148 58 C148.66 58 149.32 58 150 58 C150 58.66 150 59.32 150 60 C150.66 60 151.32 60 152 60 C152 60.66 152 61.32 152 62 C152.66 62 153.32 62 154 62 C154 62.66 154 63.32 154 64 C154.66 64 155.32 64 156 64 C156 65.32 156 66.64 156 68 C156.66 68 157.32 68 158 68 C158 68.66 158 69.32 158 70 C158.66 70 159.32 70 160 70 C160 71.32 160 72.64 160 74 C160.66 74 161.32 74 162 74 C162 74.66 162 75.32 162 76 C162.66 76 163.32 76 164 76 C164 77.32 164 78.64 164 80 C164.66 80 165.32 80 166 80 C166 80.66 166 81.32 166 82 C166.66 82 167.32 82 168 82 C168 83.32 168 84.64 168 86 C168.66 86 169.32 86 170 86 C170 87.32 170 88.64 170 90 C170.66 90 171.32 90 172 90 C172 91.32 172 92.64 172 94 C172.66 94 173.32 94 174 94 C174 95.98 174 97.96 174 100 C174.66 100 175.32 100 176 100 C176 101.32 176 102.64 176 104 C176.66 104 177.32 104 178 104 C178 105.98 178 107.96 178 110 C178.66 110 179.32 110 180 110 C180 111.98 180 113.96 180 116 C180.66 116 181.32 116 182 116 C182 118.64 182 121.28 182 124 C182.66 124 183.32 124 184 124 C184 127.96 184 131.92 184 136 C184.66 136 185.32 136 186 136 C186 150.52 186 165.04 186 180 C185.34 180 184.68 180 184 180 C184 183.96 184 187.92 184 192 C183.34 192 182.68 192 182 192 C182 194.64 182 197.28 182 200 C181.34 200 180.68 200 180 200 C180 201.98 180 203.96 180 206 C179.34 206 178.68 206 178 206 C178 207.98 178 209.96 178 212 C177.34 212 176.68 212 176 212 C176 213.32 176 214.64 176 216 C175.34 216 174.68 216 174 216 C174 217.98 174 219.96 174 222 C173.34 222 172.68 222 172 222 C172 223.32 172 224.64 172 226 C171.34 226 170.68 226 170 226 C170 227.32 170 228.64 170 230 C169.34 230 168.68 230 168 230 C168 231.32 168 232.64 168 234 C167.34 234 166.68 234 166 234 C166 234.66 166 235.32 166 236 C165.34 236 164.68 236 164 236 C164 237.32 164 238.64 164 240 C163.34 240 162.68 240 162 240 C162 240.66 162 241.32 162 242 C161.34 242 160.68 242 160 242 C160 243.32 160 244.64 160 246 C159.34 246 158.68 246 158 246 C158 246.66 158 247.32 158 248 C157.34 248 156.68 248 156 248 C156 249.32 156 250.64 156 252 C155.34 252 154.68 252 154 252 C154 252.66 154 253.32 154 254 C153.34 254 152.68 254 152 254 C152 252.68 152 251.36 152 250 C151.34 250 150.68 250 150 250 C150 248.68 150 247.36 150 246 C149.34 246 148.68 246 148 246 C148 244.02 148 242.04 148 240 C147.34 240 146.68 240 146 240 C146 239.34 146 238.68 146 238 C145.34 238 144.68 238 144 238 C144 236.68 144 235.36 144 234 C143.34 234 142.68 234 142 234 C142 233.34 142 232.68 142 232 C141.34 232 140.68 232 140 232 C140 231.34 140 230.68 140 230 C139.34 230 138.68 230 138 230 C138 228.02 138 226.04 138 224 C138.66 224 139.32 224 140 224 C140 222.02 140 220.04 140 218 C140.66 218 141.32 218 142 218 C142 214.7 142 211.4 142 208 C141.34 208 140.68 208 140 208 C140 206.02 140 204.04 140 202 C139.34 202 138.68 202 138 202 C138 201.34 138 200.68 138 200 C137.34 200 136.68 200 136 200 C136 199.34 136 198.68 136 198 C135.34 198 134.68 198 134 198 C134 197.34 134 196.68 134 196 C133.34 196 132.68 196 132 196 C132 195.34 132 194.68 132 194 C130.02 194 128.04 194 126 194 C126 193.34 126 192.68 126 192 C123.36 192 120.72 192 118 192 C118 191.34 118 190.68 118 190 C114.7 190 111.4 190 108 190 C108 189.34 108 188.68 108 188 C108.66 188 109.32 188 110 188 C110 183.38 110 178.76 110 174 C110.66 174 111.32 174 112 174 C112 162.12 112 150.24 112 138 C111.34 138 110.68 138 110 138 C110 134.7 110 131.4 110 128 C109.34 128 108.68 128 108 128 C108 126.68 108 125.36 108 124 C107.34 124 106.68 124 106 124 C106 122.02 106 120.04 106 118 C105.34 118 104.68 118 104 118 C104 117.34 104 116.68 104 116 C103.34 116 102.68 116 102 116 C102 114.68 102 113.36 102 112 C101.34 112 100.68 112 100 112 C100 111.34 100 110.68 100 110 C99.34 110 98.68 110 98 110 C98 109.34 98 108.68 98 108 C97.34 108 96.68 108 96 108 C96 106.68 96 105.36 96 104 C95.34 104 94.68 104 94 104 C94 103.34 94 102.68 94 102 C93.34 102 92.68 102 92 102 C92 101.34 92 100.68 92 100 C91.34 100 90.68 100 90 100 C90 99.34 90 98.68 90 98 C89.34 98 88.68 98 88 98 C88 97.34 88 96.68 88 96 C87.34 96 86.68 96 86 96 C86 95.34 86 94.68 86 94 C85.34 94 84.68 94 84 94 C84 93.34 84 92.68 84 92 C83.34 92 82.68 92 82 92 C82 91.34 82 90.68 82 90 C80.68 90 79.36 90 78 90 C78 89.34 78 88.68 78 88 C77.34 88 76.68 88 76 88 C76 87.34 76 86.68 76 86 C74.68 86 73.36 86 72 86 C72 85.34 72 84.68 72 84 C70.68 84 69.36 84 68 84 C68 83.34 68 82.68 68 82 C67.34 82 66.68 82 66 82 C66 81.34 66 80.68 66 80 C64.68 80 63.36 80 62 80 C62 79.34 62 78.68 62 78 C60.68 78 59.36 78 58 78 C58 77.34 58 76.68 58 76 C56.02 76 54.04 76 52 76 C52 75.34 52 74.68 52 74 C49.36 74 46.72 74 44 74 C44 73.34 44 72.68 44 72 C41.36 72 38.72 72 36 72 C36 71.34 36 70.68 36 70 C26.1 70 16.2 70 6 70 C6 70.66 6 71.32 6 72 C3.36 72 0.72 72 -2 72 C-2 72.66 -2 73.32 -2 74 C-4.64 74 -7.28 74 -10 74 C-10 74.66 -10 75.32 -10 76 C-11.98 76 -13.96 76 -16 76 C-16 76.66 -16 77.32 -16 78 C-17.32 78 -18.64 78 -20 78 C-20 78.66 -20 79.32 -20 80 C-21.32 80 -22.64 80 -24 80 C-24 80.66 -24 81.32 -24 82 C-24.66 82 -25.32 82 -26 82 C-26 82.66 -26 83.32 -26 84 C-27.32 84 -28.64 84 -30 84 C-30 84.66 -30 85.32 -30 86 C-31.32 86 -32.64 86 -34 86 C-34 86.66 -34 87.32 -34 88 C-34.66 88 -35.32 88 -36 88 C-36 88.66 -36 89.32 -36 90 C-36.66 90 -37.32 90 -38 90 C-38 90.66 -38 91.32 -38 92 C-38.66 92 -39.32 92 -40 92 C-40 92.66 -40 93.32 -40 94 C-40.66 94 -41.32 94 -42 94 C-42 94.66 -42 95.32 -42 96 C-42.66 96 -43.32 96 -44 96 C-44 96.66 -44 97.32 -44 98 C-44.66 98 -45.32 98 -46 98 C-46 98.66 -46 99.32 -46 100 C-46.66 100 -47.32 100 -48 100 C-48 100.66 -48 101.32 -48 102 C-48.66 102 -49.32 102 -50 102 C-50 102.66 -50 103.32 -50 104 C-50.66 104 -51.32 104 -52 104 C-52 104.66 -52 105.32 -52 106 C-52.66 106 -53.32 106 -54 106 C-54 107.32 -54 108.64 -54 110 C-54.66 110 -55.32 110 -56 110 C-56 110.66 -56 111.32 -56 112 C-56.66 112 -57.32 112 -58 112 C-58 113.32 -58 114.64 -58 116 C-58.66 116 -59.32 116 -60 116 C-60 117.32 -60 118.64 -60 120 C-60.66 120 -61.32 120 -62 120 C-62 121.32 -62 122.64 -62 124 C-62.66 124 -63.32 124 -64 124 C-64 125.32 -64 126.64 -64 128 C-64.66 128 -65.32 128 -66 128 C-66 130.64 -66 133.28 -66 136 C-66.66 136 -67.32 136 -68 136 C-68 138.64 -68 141.28 -68 144 C-68.66 144 -69.32 144 -70 144 C-70 155.88 -70 167.76 -70 180 C-69.34 180 -68.68 180 -68 180 C-68 182.64 -68 185.28 -68 188 C-67.34 188 -66.68 188 -66 188 C-66 189.32 -66 190.64 -66 192 C-71.28 192 -76.56 192 -82 192 C-82 192.66 -82 193.32 -82 194 C-83.98 194 -85.96 194 -88 194 C-88 194.66 -88 195.32 -88 196 C-88.66 196 -89.32 196 -90 196 C-90 196.66 -90 197.32 -90 198 C-91.32 198 -92.64 198 -94 198 C-94 199.32 -94 200.64 -94 202 C-94.66 202 -95.32 202 -96 202 C-96 203.32 -96 204.64 -96 206 C-96.66 206 -97.32 206 -98 206 C-98 209.96 -98 213.92 -98 218 C-97.34 218 -96.68 218 -96 218 C-96 220.64 -96 223.28 -96 226 C-96.66 226 -97.32 226 -98 226 C-98 227.32 -98 228.64 -98 230 C-98.66 230 -99.32 230 -100 230 C-100 230.66 -100 231.32 -100 232 C-100.66 232 -101.32 232 -102 232 C-102 232.66 -102 233.32 -102 234 C-102.66 234 -103.32 234 -104 234 C-104 235.32 -104 236.64 -104 238 C-104.66 238 -105.32 238 -106 238 C-106 238.66 -106 239.32 -106 240 C-106.66 240 -107.32 240 -108 240 C-108 241.32 -108 242.64 -108 244 C-108.66 244 -109.32 244 -110 244 C-110 245.32 -110 246.64 -110 248 C-110.66 248 -111.32 248 -112 248 C-112 249.32 -112 250.64 -112 252 C-112.66 252 -113.32 252 -114 252 C-114 251.34 -114 250.68 -114 250 C-114.66 250 -115.32 250 -116 250 C-116 248.68 -116 247.36 -116 246 C-116.66 246 -117.32 246 -118 246 C-118 245.34 -118 244.68 -118 244 C-118.66 244 -119.32 244 -120 244 C-120 242.68 -120 241.36 -120 240 C-120.66 240 -121.32 240 -122 240 C-122 239.34 -122 238.68 -122 238 C-122.66 238 -123.32 238 -124 238 C-124 236.68 -124 235.36 -124 234 C-124.66 234 -125.32 234 -126 234 C-126 232.68 -126 231.36 -126 230 C-126.66 230 -127.32 230 -128 230 C-128 229.34 -128 228.68 -128 228 C-128.66 228 -129.32 228 -130 228 C-130 226.02 -130 224.04 -130 222 C-130.66 222 -131.32 222 -132 222 C-132 220.68 -132 219.36 -132 218 C-132.66 218 -133.32 218 -134 218 C-134 216.68 -134 215.36 -134 214 C-134.66 214 -135.32 214 -136 214 C-136 212.02 -136 210.04 -136 208 C-136.66 208 -137.32 208 -138 208 C-138 206.02 -138 204.04 -138 202 C-138.66 202 -139.32 202 -140 202 C-140 199.36 -140 196.72 -140 194 C-140.66 194 -141.32 194 -142 194 C-142 191.36 -142 188.72 -142 186 C-142.66 186 -143.32 186 -144 186 C-144 178.74 -144 171.48 -144 164 C-144.66 164 -145.32 164 -146 164 C-146 162.02 -146 160.04 -146 158 C-145.34 158 -144.68 158 -144 158 C-144 157.34 -144 156.68 -144 156 C-144.66 156 -145.32 156 -146 156 C-146 155.34 -146 154.68 -146 154 C-145.34 154 -144.68 154 -144 154 C-144 146.08 -144 138.16 -144 130 C-143.34 130 -142.68 130 -142 130 C-142 127.36 -142 124.72 -142 122 C-141.34 122 -140.68 122 -140 122 C-140 119.36 -140 116.72 -140 114 C-139.34 114 -138.68 114 -138 114 C-138 112.02 -138 110.04 -138 108 C-137.34 108 -136.68 108 -136 108 C-136 106.68 -136 105.36 -136 104 C-135.34 104 -134.68 104 -134 104 C-134 102.02 -134 100.04 -134 98 C-133.34 98 -132.68 98 -132 98 C-132 96.68 -132 95.36 -132 94 C-131.34 94 -130.68 94 -130 94 C-130 92.68 -130 91.36 -130 90 C-129.34 90 -128.68 90 -128 90 C-128 88.68 -128 87.36 -128 86 C-127.34 86 -126.68 86 -126 86 C-126 84.68 -126 83.36 -126 82 C-125.34 82 -124.68 82 -124 82 C-124 80.68 -124 79.36 -124 78 C-123.34 78 -122.68 78 -122 78 C-122 77.34 -122 76.68 -122 76 C-121.34 76 -120.68 76 -120 76 C-120 74.68 -120 73.36 -120 72 C-119.34 72 -118.68 72 -118 72 C-118 71.34 -118 70.68 -118 70 C-117.34 70 -116.68 70 -116 70 C-116 68.68 -116 67.36 -116 66 C-115.34 66 -114.68 66 -114 66 C-114 65.34 -114 64.68 -114 64 C-113.34 64 -112.68 64 -112 64 C-112 63.34 -112 62.68 -112 62 C-111.34 62 -110.68 62 -110 62 C-110 61.34 -110 60.68 -110 60 C-109.34 60 -108.68 60 -108 60 C-108 59.34 -108 58.68 -108 58 C-107.34 58 -106.68 58 -106 58 C-106 56.68 -106 55.36 -106 54 C-105.34 54 -104.68 54 -104 54 C-104 53.34 -104 52.68 -104 52 C-103.34 52 -102.68 52 -102 52 C-102 51.34 -102 50.68 -102 50 C-101.34 50 -100.68 50 -100 50 C-100 49.34 -100 48.68 -100 48 C-99.34 48 -98.68 48 -98 48 C-98 47.34 -98 46.68 -98 46 C-97.34 46 -96.68 46 -96 46 C-96 45.34 -96 44.68 -96 44 C-94.68 44 -93.36 44 -92 44 C-92 42.68 -92 41.36 -92 40 C-90.68 40 -89.36 40 -88 40 C-88 39.34 -88 38.68 -88 38 C-87.34 38 -86.68 38 -86 38 C-86 37.34 -86 36.68 -86 36 C-85.34 36 -84.68 36 -84 36 C-84 35.34 -84 34.68 -84 34 C-83.34 34 -82.68 34 -82 34 C-82 33.34 -82 32.68 -82 32 C-80.68 32 -79.36 32 -78 32 C-78 31.34 -78 30.68 -78 30 C-77.34 30 -76.68 30 -76 30 C-76 29.34 -76 28.68 -76 28 C-74.68 28 -73.36 28 -72 28 C-72 27.34 -72 26.68 -72 26 C-71.34 26 -70.68 26 -70 26 C-70 25.34 -70 24.68 -70 24 C-68.68 24 -67.36 24 -66 24 C-66 23.34 -66 22.68 -66 22 C-64.68 22 -63.36 22 -62 22 C-62 21.34 -62 20.68 -62 20 C-60.68 20 -59.36 20 -58 20 C-58 19.34 -58 18.68 -58 18 C-57.34 18 -56.68 18 -56 18 C-56 17.34 -56 16.68 -56 16 C-54.02 16 -52.04 16 -50 16 C-50 15.34 -50 14.68 -50 14 C-48.68 14 -47.36 14 -46 14 C-46 13.34 -46 12.68 -46 12 C-44.68 12 -43.36 12 -42 12 C-42 11.34 -42 10.68 -42 10 C-40.02 10 -38.04 10 -36 10 C-36 9.34 -36 8.68 -36 8 C-34.02 8 -32.04 8 -30 8 C-30 7.34 -30 6.68 -30 6 C-27.36 6 -24.72 6 -22 6 C-22 5.34 -22 4.68 -22 4 C-19.36 4 -16.72 4 -14 4 C-14 3.34 -14 2.68 -14 2 C-9.38 2 -4.76 2 0 2 C0 1.34 0 0.68 0 0 Z " fill="#0C6C70" transform="translate(152,10)"/>
<path d="M0 0 C1.65 0 3.3 0 5 0 C4.85595878 2.27094771 4.70965714 4.54175207 4.5625 6.8125 C4.44068359 8.70935547 4.44068359 8.70935547 4.31640625 10.64453125 C4.10458614 13.78800924 3.80679486 16.91521223 3.48852539 20.04956055 C2.95499071 25.89743215 2.85529744 31.69342455 2.8671875 37.5625 C2.86575241 39.16955811 2.86575241 39.16955811 2.86428833 40.80908203 C2.86361206 43.06461649 2.86542746 45.32015295 2.86962891 47.57568359 C2.87494238 50.96326263 2.86968685 54.3507065 2.86328125 57.73828125 C2.8597722 70.52527358 3.15638958 83.24015224 4 96 C3.34 96 2.68 96 2 96 C2 97.32 2 98.64 2 100 C1.34 100 0.68 100 0 100 C0 101.32 0 102.64 0 104 C-0.66 104 -1.32 104 -2 104 C-2 105.32 -2 106.64 -2 108 C-2.66 108 -3.32 108 -4 108 C-4 110.64 -4 113.28 -4 116 C-4.66 116 -5.32 116 -6 116 C-6 118.64 -6 121.28 -6 124 C-6.66 124 -7.32 124 -8 124 C-8 135.88 -8 147.76 -8 160 C-7.34 160 -6.68 160 -6 160 C-6 162.64 -6 165.28 -6 168 C-5.34 168 -4.68 168 -4 168 C-4 169.32 -4 170.64 -4 172 C-9.28 172 -14.56 172 -20 172 C-20 172.66 -20 173.32 -20 174 C-21.98 174 -23.96 174 -26 174 C-26 174.66 -26 175.32 -26 176 C-26.66 176 -27.32 176 -28 176 C-28 176.66 -28 177.32 -28 178 C-29.32 178 -30.64 178 -32 178 C-32 179.32 -32 180.64 -32 182 C-32.66 182 -33.32 182 -34 182 C-34 183.32 -34 184.64 -34 186 C-34.66 186 -35.32 186 -36 186 C-36 189.96 -36 193.92 -36 198 C-35.34 198 -34.68 198 -34 198 C-34 200.64 -34 203.28 -34 206 C-34.66 206 -35.32 206 -36 206 C-36 207.32 -36 208.64 -36 210 C-36.66 210 -37.32 210 -38 210 C-38 210.66 -38 211.32 -38 212 C-38.66 212 -39.32 212 -40 212 C-40 212.66 -40 213.32 -40 214 C-40.66 214 -41.32 214 -42 214 C-42 215.32 -42 216.64 -42 218 C-42.66 218 -43.32 218 -44 218 C-44 218.66 -44 219.32 -44 220 C-44.66 220 -45.32 220 -46 220 C-46 221.32 -46 222.64 -46 224 C-46.66 224 -47.32 224 -48 224 C-48 225.32 -48 226.64 -48 228 C-48.66 228 -49.32 228 -50 228 C-50 229.32 -50 230.64 -50 232 C-50.66 232 -51.32 232 -52 232 C-52 231.34 -52 230.68 -52 230 C-52.66 230 -53.32 230 -54 230 C-54 228.68 -54 227.36 -54 226 C-54.66 226 -55.32 226 -56 226 C-56 225.34 -56 224.68 -56 224 C-56.66 224 -57.32 224 -58 224 C-58 222.68 -58 221.36 -58 220 C-58.66 220 -59.32 220 -60 220 C-60 219.34 -60 218.68 -60 218 C-60.66 218 -61.32 218 -62 218 C-62 216.68 -62 215.36 -62 214 C-62.66 214 -63.32 214 -64 214 C-64 212.68 -64 211.36 -64 210 C-64.66 210 -65.32 210 -66 210 C-66 209.34 -66 208.68 -66 208 C-66.66 208 -67.32 208 -68 208 C-68 206.02 -68 204.04 -68 202 C-68.66 202 -69.32 202 -70 202 C-70 200.68 -70 199.36 -70 198 C-70.66 198 -71.32 198 -72 198 C-72 196.68 -72 195.36 -72 194 C-72.66 194 -73.32 194 -74 194 C-74 192.02 -74 190.04 -74 188 C-74.66 188 -75.32 188 -76 188 C-76 186.02 -76 184.04 -76 182 C-76.66 182 -77.32 182 -78 182 C-78 179.36 -78 176.72 -78 174 C-78.66 174 -79.32 174 -80 174 C-80 171.36 -80 168.72 -80 166 C-80.66 166 -81.32 166 -82 166 C-82 158.74 -82 151.48 -82 144 C-82.66 144 -83.32 144 -84 144 C-84 142.02 -84 140.04 -84 138 C-83.34 138 -82.68 138 -82 138 C-82 137.34 -82 136.68 -82 136 C-82.66 136 -83.32 136 -84 136 C-84 135.34 -84 134.68 -84 134 C-83.34 134 -82.68 134 -82 134 C-82 126.08 -82 118.16 -82 110 C-81.34 110 -80.68 110 -80 110 C-80 107.36 -80 104.72 -80 102 C-79.34 102 -78.68 102 -78 102 C-78 99.36 -78 96.72 -78 94 C-77.34 94 -76.68 94 -76 94 C-76 92.02 -76 90.04 -76 88 C-75.34 88 -74.68 88 -74 88 C-74 86.68 -74 85.36 -74 84 C-73.34 84 -72.68 84 -72 84 C-72 82.02 -72 80.04 -72 78 C-71.34 78 -70.68 78 -70 78 C-70 76.68 -70 75.36 -70 74 C-69.34 74 -68.68 74 -68 74 C-68 72.68 -68 71.36 -68 70 C-67.34 70 -66.68 70 -66 70 C-66 68.68 -66 67.36 -66 66 C-65.34 66 -64.68 66 -64 66 C-64 64.68 -64 63.36 -64 62 C-63.34 62 -62.68 62 -62 62 C-62 60.68 -62 59.36 -62 58 C-61.34 58 -60.68 58 -60 58 C-60 57.34 -60 56.68 -60 56 C-59.34 56 -58.68 56 -58 56 C-58 54.68 -58 53.36 -58 52 C-57.34 52 -56.68 52 -56 52 C-56 51.34 -56 50.68 -56 50 C-55.34 50 -54.68 50 -54 50 C-54 48.68 -54 47.36 -54 46 C-53.34 46 -52.68 46 -52 46 C-52 45.34 -52 44.68 -52 44 C-51.34 44 -50.68 44 -50 44 C-50 43.34 -50 42.68 -50 42 C-49.34 42 -48.68 42 -48 42 C-48 41.34 -48 40.68 -48 40 C-47.34 40 -46.68 40 -46 40 C-46 39.34 -46 38.68 -46 38 C-45.34 38 -44.68 38 -44 38 C-44 36.68 -44 35.36 -44 34 C-43.34 34 -42.68 34 -42 34 C-42 33.34 -42 32.68 -42 32 C-41.34 32 -40.68 32 -40 32 C-40 31.34 -40 30.68 -40 30 C-39.34 30 -38.68 30 -38 30 C-38 29.34 -38 28.68 -38 28 C-37.34 28 -36.68 28 -36 28 C-36 27.34 -36 26.68 -36 26 C-35.34 26 -34.68 26 -34 26 C-34 25.34 -34 24.68 -34 24 C-32.68 24 -31.36 24 -30 24 C-30 22.68 -30 21.36 -30 20 C-28.68 20 -27.36 20 -26 20 C-26 19.34 -26 18.68 -26 18 C-25.34 18 -24.68 18 -24 18 C-24 17.34 -24 16.68 -24 16 C-23.34 16 -22.68 16 -22 16 C-22 15.34 -22 14.68 -22 14 C-21.34 14 -20.68 14 -20 14 C-20 13.34 -20 12.68 -20 12 C-18.68 12 -17.36 12 -16 12 C-16 11.34 -16 10.68 -16 10 C-15.34 10 -14.68 10 -14 10 C-14 9.34 -14 8.68 -14 8 C-12.68 8 -11.36 8 -10 8 C-10 7.34 -10 6.68 -10 6 C-9.34 6 -8.68 6 -8 6 C-8 5.34 -8 4.68 -8 4 C-6.68 4 -5.36 4 -4 4 C-4 3.34 -4 2.68 -4 2 C-2.68 2 -1.36 2 0 2 C0 1.34 0 0.68 0 0 Z " fill="#A3C23F" transform="translate(90,30)"/>
<path d="M0 0 C8.58 0 17.16 0 26 0 C26 0.66 26 1.32 26 2 C27.98 2 29.96 2 32 2 C32 2.66 32 3.32 32 4 C33.32 4 34.64 4 36 4 C36 4.66 36 5.32 36 6 C37.32 6 38.64 6 40 6 C40 6.66 40 7.32 40 8 C40.66 8 41.32 8 42 8 C42 8.66 42 9.32 42 10 C42.66 10 43.32 10 44 10 C44 10.66 44 11.32 44 12 C44.66 12 45.32 12 46 12 C46 12.66 46 13.32 46 14 C46.66 14 47.32 14 48 14 C48 14.66 48 15.32 48 16 C48.66 16 49.32 16 50 16 C50 16.66 50 17.32 50 18 C50.66 18 51.32 18 52 18 C52 18.66 52 19.32 52 20 C52.66 20 53.32 20 54 20 C54 21.32 54 22.64 54 24 C54.66 24 55.32 24 56 24 C56 25.32 56 26.64 56 28 C56.66 28 57.32 28 58 28 C58 29.98 58 31.96 58 34 C58.66 34 59.32 34 60 34 C60 59.08 60 84.16 60 110 C58.02 110 56.04 110 54 110 C54 110.66 54 111.32 54 112 C52.02 112 50.04 112 48 112 C48 112.66 48 113.32 48 114 C45.36 114 42.72 114 40 114 C40 114.66 40 115.32 40 116 C34.72 116 29.44 116 24 116 C24 116.66 24 117.32 24 118 C16.74 118 9.48 118 2 118 C2 117.34 2 116.68 2 116 C-3.28 116 -8.56 116 -14 116 C-14 115.34 -14 114.68 -14 114 C-16.64 114 -19.28 114 -22 114 C-22 113.34 -22 112.68 -22 112 C-23.32 112 -24.64 112 -26 112 C-26 111.34 -26 110.68 -26 110 C-27.32 110 -28.64 110 -30 110 C-30 109.34 -30 108.68 -30 108 C-30.66 108 -31.32 108 -32 108 C-32 82.92 -32 57.84 -32 32 C-31.34 32 -30.68 32 -30 32 C-30 30.68 -30 29.36 -30 28 C-29.34 28 -28.68 28 -28 28 C-28 26.02 -28 24.04 -28 22 C-27.34 22 -26.68 22 -26 22 C-26 21.34 -26 20.68 -26 20 C-25.34 20 -24.68 20 -24 20 C-24 19.34 -24 18.68 -24 18 C-23.34 18 -22.68 18 -22 18 C-22 16.68 -22 15.36 -22 14 C-21.34 14 -20.68 14 -20 14 C-20 13.34 -20 12.68 -20 12 C-19.34 12 -18.68 12 -18 12 C-18 11.34 -18 10.68 -18 10 C-16.68 10 -15.36 10 -14 10 C-14 9.34 -14 8.68 -14 8 C-13.34 8 -12.68 8 -12 8 C-12 7.34 -12 6.68 -12 6 C-10.68 6 -9.36 6 -8 6 C-8 5.34 -8 4.68 -8 4 C-6.68 4 -5.36 4 -4 4 C-4 3.34 -4 2.68 -4 2 C-2.68 2 -1.36 2 0 2 C0 1.34 0 0.68 0 0 Z " fill="#9EBC3E" transform="translate(158,210)"/>
<path d="M0 0 C13.86 0 27.72 0 42 0 C42 0.66 42 1.32 42 2 C46.62 2 51.24 2 56 2 C56 2.66 56 3.32 56 4 C58.64 4 61.28 4 64 4 C64 4.66 64 5.32 64 6 C61.58299013 5.85870713 59.16649571 5.71213513 56.75 5.5625 C56.06808594 5.52318359 55.38617188 5.48386719 54.68359375 5.44335938 C49.44083376 5.11250559 49.44083376 5.11250559 47.03222656 4.49780273 C44.91630813 3.97949931 42.98688119 3.8118246 40.8125 3.71875 C40.03132813 3.68136719 39.25015625 3.64398438 38.4453125 3.60546875 C37.63835937 3.57066406 36.83140625 3.53585937 36 3.5 C34.39566855 3.4308036 32.79148743 3.35800847 31.1875 3.28125 C30.47980469 3.25095703 29.77210938 3.22066406 29.04296875 3.18945312 C26.94348775 2.99475938 25.03692389 2.53107697 23 2 C23.0714624 3.23387451 23.1429248 4.46774902 23.21655273 5.73901367 C23.97368096 19.60678601 24.1209311 33.4268453 24.0625 47.3125 C24.05746564 49.43294163 24.05290622 51.55338444 24.04882812 53.67382812 C24.03799731 58.78258224 24.02084408 63.89127734 24 69 C26.97 69 29.94 69 33 69 C33 69.33 33 69.66 33 70 C24.09 70 15.18 70 6 70 C6 70.66 6 71.32 6 72 C3.36 72 0.72 72 -2 72 C-2 72.66 -2 73.32 -2 74 C-4.64 74 -7.28 74 -10 74 C-10 74.66 -10 75.32 -10 76 C-11.98 76 -13.96 76 -16 76 C-16 76.66 -16 77.32 -16 78 C-17.32 78 -18.64 78 -20 78 C-20 78.66 -20 79.32 -20 80 C-21.32 80 -22.64 80 -24 80 C-24 80.66 -24 81.32 -24 82 C-24.66 82 -25.32 82 -26 82 C-26 82.66 -26 83.32 -26 84 C-27.32 84 -28.64 84 -30 84 C-30 84.66 -30 85.32 -30 86 C-31.32 86 -32.64 86 -34 86 C-34 86.66 -34 87.32 -34 88 C-34.66 88 -35.32 88 -36 88 C-36 88.66 -36 89.32 -36 90 C-36.66 90 -37.32 90 -38 90 C-38 90.66 -38 91.32 -38 92 C-38.66 92 -39.32 92 -40 92 C-40 92.66 -40 93.32 -40 94 C-40.66 94 -41.32 94 -42 94 C-42 94.66 -42 95.32 -42 96 C-42.66 96 -43.32 96 -44 96 C-44 96.66 -44 97.32 -44 98 C-44.66 98 -45.32 98 -46 98 C-46 98.66 -46 99.32 -46 100 C-46.66 100 -47.32 100 -48 100 C-48 100.66 -48 101.32 -48 102 C-48.66 102 -49.32 102 -50 102 C-50 102.66 -50 103.32 -50 104 C-50.66 104 -51.32 104 -52 104 C-52 104.66 -52 105.32 -52 106 C-52.66 106 -53.32 106 -54 106 C-54 107.32 -54 108.64 -54 110 C-54.66 110 -55.32 110 -56 110 C-56 110.66 -56 111.32 -56 112 C-56.99 112 -57.98 112 -59 112 C-60.08917663 99.71198191 -60.18619918 87.45227481 -60.18530273 75.12255859 C-60.18748672 71.77037804 -60.20569997 68.41852884 -60.22460938 65.06640625 C-60.25153387 54.3759005 -60.07253198 43.84955339 -58.70195007 33.23577881 C-58.04299194 28.11591564 -57.91967607 23.1648604 -58 18 C-57.34 18 -56.68 18 -56 18 C-56 17.34 -56 16.68 -56 16 C-54.02 16 -52.04 16 -50 16 C-50 15.34 -50 14.68 -50 14 C-48.68 14 -47.36 14 -46 14 C-46 13.34 -46 12.68 -46 12 C-44.68 12 -43.36 12 -42 12 C-42 11.34 -42 10.68 -42 10 C-40.02 10 -38.04 10 -36 10 C-36 9.34 -36 8.68 -36 8 C-34.02 8 -32.04 8 -30 8 C-30 7.34 -30 6.68 -30 6 C-27.36 6 -24.72 6 -22 6 C-22 5.34 -22 4.68 -22 4 C-19.36 4 -16.72 4 -14 4 C-14 3.34 -14 2.68 -14 2 C-9.38 2 -4.76 2 0 2 C0 1.34 0 0.68 0 0 Z " fill="#53A084" transform="translate(152,10)"/>
<path d="M0 0 C0.99 0.33 1.98 0.66 3 1 C3 2.32 3 3.64 3 5 C7.62 5.66 12.24 6.32 17 7 C17 7.66 17 8.32 17 9 C17.56847656 9.10957031 18.13695312 9.21914062 18.72265625 9.33203125 C23.01482378 10.21339453 26.95818097 11.23018272 30.9609375 13.0703125 C33.75810626 14.34564998 36.5977328 15.51035997 39.4375 16.6875 C40.48808594 17.12449219 41.53867187 17.56148437 42.62109375 18.01171875 C43.79865234 18.50091797 43.79865234 18.50091797 45 19 C45 19.66 45 20.32 45 21 C45.804375 21.226875 46.60875 21.45375 47.4375 21.6875 C52.67978762 23.61886912 57.64058093 26.1928794 62.0859375 29.59765625 C64.04997723 31.18643011 64.04997723 31.18643011 67 32 C67 32.66 67 33.32 67 34 C67.66 34.2475 68.32 34.495 69 34.75 C72.15100044 36.06291685 75.12260288 37.59064823 78.1328125 39.1953125 C80.12030705 40.19788674 80.12030705 40.19788674 83 40 C83.33 35.38 83.66 30.76 84 26 C84.66 26 85.32 26 86 26 C86 40.52 86 55.04 86 70 C85.34 70 84.68 70 84 70 C84 73.96 84 77.92 84 82 C83.34 82 82.68 82 82 82 C82 84.64 82 87.28 82 90 C81.34 90 80.68 90 80 90 C80 91.98 80 93.96 80 96 C79.34 96 78.68 96 78 96 C78 97.98 78 99.96 78 102 C77.34 102 76.68 102 76 102 C76 103.32 76 104.64 76 106 C75.34 106 74.68 106 74 106 C74 107.98 74 109.96 74 112 C73.34 112 72.68 112 72 112 C72 113.32 72 114.64 72 116 C71.34 116 70.68 116 70 116 C70 117.32 70 118.64 70 120 C69.34 120 68.68 120 68 120 C68 121.32 68 122.64 68 124 C67.34 124 66.68 124 66 124 C66 124.66 66 125.32 66 126 C65.34 126 64.68 126 64 126 C64 127.32 64 128.64 64 130 C63.34 130 62.68 130 62 130 C62 130.66 62 131.32 62 132 C61.34 132 60.68 132 60 132 C60 133.32 60 134.64 60 136 C59.34 136 58.68 136 58 136 C58 136.66 58 137.32 58 138 C57.34 138 56.68 138 56 138 C56 139.32 56 140.64 56 142 C55.34 142 54.68 142 54 142 C54 142.66 54 143.32 54 144 C53.34 144 52.68 144 52 144 C52 142.68 52 141.36 52 140 C51.34 140 50.68 140 50 140 C50 138.68 50 137.36 50 136 C49.34 136 48.68 136 48 136 C48 134.02 48 132.04 48 130 C47.34 130 46.68 130 46 130 C46 129.34 46 128.68 46 128 C45.34 128 44.68 128 44 128 C44 126.68 44 125.36 44 124 C43.34 124 42.68 124 42 124 C42 123.34 42 122.68 42 122 C41.34 122 40.68 122 40 122 C40 121.34 40 120.68 40 120 C39.34 120 38.68 120 38 120 C38 118.02 38 116.04 38 114 C38.66 114 39.32 114 40 114 C40 112.02 40 110.04 40 108 C40.66 108 41.32 108 42 108 C42 104.7 42 101.4 42 98 C41.34 98 40.68 98 40 98 C40 96.02 40 94.04 40 92 C39.34 92 38.68 92 38 92 C38 91.34 38 90.68 38 90 C37.34 90 36.68 90 36 90 C36 89.34 36 88.68 36 88 C35.34 88 34.68 88 34 88 C34 87.34 34 86.68 34 86 C33.34 86 32.68 86 32 86 C32 85.34 32 84.68 32 84 C30.02 84 28.04 84 26 84 C26 83.34 26 82.68 26 82 C23.36 82 20.72 82 18 82 C18 81.34 18 80.68 18 80 C14.7 80 11.4 80 8 80 C8 79.34 8 78.68 8 78 C8.66 78 9.32 78 10 78 C10 73.38 10 68.76 10 64 C10.66 64 11.32 64 12 64 C12 52.12 12 40.24 12 28 C11.34 28 10.68 28 10 28 C10 24.7 10 21.4 10 18 C9.34 18 8.68 18 8 18 C8 16.68 8 15.36 8 14 C7.34 14 6.68 14 6 14 C6 12.02 6 10.04 6 8 C5.34 8 4.68 8 4 8 C4 7.34 4 6.68 4 6 C3.34 6 2.68 6 2 6 C2 4.68 2 3.36 2 2 C1.34 2 0.68 2 0 2 C0 1.34 0 0.68 0 0 Z " fill="#2C9682" transform="translate(252,120)"/>
<path d="M0 0 C3.58362776 0.13910487 7.16681498 0.28745413 10.75 0.4375 C11.76578125 0.47681641 12.7815625 0.51613281 13.828125 0.55664062 C15.29765625 0.61948242 15.29765625 0.61948242 16.796875 0.68359375 C18.14797363 0.73858032 18.14797363 0.73858032 19.52636719 0.79467773 C21.81150584 0.98435417 23.78630864 1.43530473 26 2 C27.80401519 2.20893476 29.61207423 2.38433952 31.421875 2.53515625 C32.95908203 2.66567383 32.95908203 2.66567383 34.52734375 2.79882812 C35.59082031 2.88583984 36.65429688 2.97285156 37.75 3.0625 C39.36841797 3.19881836 39.36841797 3.19881836 41.01953125 3.33789062 C43.67945748 3.56151274 46.33959943 3.78210596 49 4 C49 4.66 49 5.32 49 6 C50.98 6 52.96 6 55 6 C55 6.66 55 7.32 55 8 C56.98 8 58.96 8 61 8 C61 8.66 61 9.32 61 10 C62.32 10 63.64 10 65 10 C65 10.66 65 11.32 65 12 C66.32 12 67.64 12 69 12 C69 12.66 69 13.32 69 14 C70.98 14 72.96 14 75 14 C75 14.66 75 15.32 75 16 C75.66 16 76.32 16 77 16 C77 16.66 77 17.32 77 18 C78.32 18 79.64 18 81 18 C81 18.66 81 19.32 81 20 C82.32 20 83.64 20 85 20 C85 20.66 85 21.32 85 22 C85.66 22 86.32 22 87 22 C86.67 22.66 86.34 23.32 86 24 C84.515 23.505 84.515 23.505 83 23 C82.98018066 23.56807373 82.96036133 24.13614746 82.93994141 24.72143555 C82.58377533 34.4550019 82.17442503 43.99602319 80.47265625 53.6015625 C79.74002632 58.86923223 79.54781269 64.15607131 79.34179688 69.46728516 C79.29442383 70.6281665 79.29442383 70.6281665 79.24609375 71.8125 C79.21020142 72.84310547 79.21020142 72.84310547 79.17358398 73.89453125 C79 76 79 76 78.50439453 78.36206055 C77.92393758 81.39779985 77.78606967 84.30561419 77.68359375 87.39453125 C77.64169922 88.59658203 77.59980469 89.79863281 77.55664062 91.03710938 C77.51732422 92.28298828 77.47800781 93.52886719 77.4375 94.8125 C77.37272461 96.71032227 77.37272461 96.71032227 77.30664062 98.64648438 C77.2007553 101.76421889 77.09867595 104.88203035 77 108 C76.34 108 75.68 108 75 108 C75 107.34 75 106.68 75 106 C74.34 106 73.68 106 73 106 C73 104.68 73 103.36 73 102 C72.34 102 71.68 102 71 102 C71 101.34 71 100.68 71 100 C70.34 100 69.68 100 69 100 C69 99.34 69 98.68 69 98 C68.34 98 67.68 98 67 98 C67 97.34 67 96.68 67 96 C66.34 96 65.68 96 65 96 C65 95.34 65 94.68 65 94 C64.34 94 63.68 94 63 94 C63 93.34 63 92.68 63 92 C62.34 92 61.68 92 61 92 C61 91.34 61 90.68 61 90 C60.34 90 59.68 90 59 90 C59 89.34 59 88.68 59 88 C57.68 88 56.36 88 55 88 C55 87.34 55 86.68 55 86 C54.34 86 53.68 86 53 86 C53 85.34 53 84.68 53 84 C51.68 84 50.36 84 49 84 C49 83.34 49 82.68 49 82 C47.68 82 46.36 82 45 82 C45 81.34 45 80.68 45 80 C44.34 80 43.68 80 43 80 C43 79.34 43 78.68 43 78 C41.68 78 40.36 78 39 78 C39 77.34 39 76.68 39 76 C37.68 76 36.36 76 35 76 C35 75.34 35 74.68 35 74 C33.02 74 31.04 74 29 74 C29 73.34 29 72.68 29 72 C26.36 72 23.72 72 21 72 C21 71.34 21 70.68 21 70 C18.36 70 15.72 70 13 70 C13 69.34 13 68.68 13 68 C9.04 67.67 5.08 67.34 1 67 C0.85445921 60.83348325 0.71222595 54.66690114 0.57275391 48.50024414 C0.52510894 46.41265929 0.47663777 44.32509309 0.42724609 42.23754883 C0.09478432 28.15541805 -0.06622237 14.08604907 0 0 Z " fill="#168C8D" transform="translate(175,12)"/>
<path d="M0 0 C1.65 0 3.3 0 5 0 C4.85595878 2.27094771 4.70965714 4.54175207 4.5625 6.8125 C4.48128906 8.07707031 4.40007812 9.34164062 4.31640625 10.64453125 C4.10477239 13.7858609 3.80692311 16.91080294 3.48852539 20.04296875 C2.95159317 25.92789625 2.85533378 31.7617189 2.8671875 37.66796875 C2.86623077 38.74645584 2.86527405 39.82494293 2.86428833 40.93611145 C2.86361221 43.2042344 2.86542659 45.47235935 2.86962891 47.74047852 C2.87495873 51.16101573 2.86967799 54.58142007 2.86328125 58.00195312 C2.86332164 60.22395871 2.86460489 62.44596466 2.8671875 64.66796875 C2.86797302 65.74271454 2.86875854 66.81746033 2.86956787 67.92477417 C2.90768917 75.37878198 3.33618104 82.70907775 4.17626953 90.11450195 C4 93 4 93 2.01513672 94.91088867 C1.3501416 95.27029541 0.68514648 95.62970215 0 96 C-2.82101828 94.41047413 -5.63013788 92.80100389 -8.4375 91.1875 C-9.23994141 90.73568359 -10.04238281 90.28386719 -10.86914062 89.81835938 C-11.63291016 89.37685547 -12.39667969 88.93535156 -13.18359375 88.48046875 C-13.89056396 88.07723389 -14.59753418 87.67399902 -15.32592773 87.25854492 C-17 86 -17 86 -18 83 C-18.68320313 82.9278125 -19.36640625 82.855625 -20.0703125 82.78125 C-23.87730722 81.76605141 -26.69874175 79.73866045 -29.875 77.5 C-35.81577765 73.41678006 -41.85503683 69.59901322 -48.07568359 65.95703125 C-51.19111672 64.12452408 -54.16429753 62.24463793 -57 60 C-56.505 57.03 -56.505 57.03 -56 54 C-55.34 54 -54.68 54 -54 54 C-54 51.36 -54 48.72 -54 46 C-53.34 46 -52.68 46 -52 46 C-52 45.34 -52 44.68 -52 44 C-51.34 44 -50.68 44 -50 44 C-50 43.34 -50 42.68 -50 42 C-49.34 42 -48.68 42 -48 42 C-48 41.34 -48 40.68 -48 40 C-47.34 40 -46.68 40 -46 40 C-46 39.34 -46 38.68 -46 38 C-45.34 38 -44.68 38 -44 38 C-44 36.68 -44 35.36 -44 34 C-43.34 34 -42.68 34 -42 34 C-42 33.34 -42 32.68 -42 32 C-41.34 32 -40.68 32 -40 32 C-40 31.34 -40 30.68 -40 30 C-39.34 30 -38.68 30 -38 30 C-38 29.34 -38 28.68 -38 28 C-37.34 28 -36.68 28 -36 28 C-36 27.34 -36 26.68 -36 26 C-35.34 26 -34.68 26 -34 26 C-34 25.34 -34 24.68 -34 24 C-32.68 24 -31.36 24 -30 24 C-30 22.68 -30 21.36 -30 20 C-28.68 20 -27.36 20 -26 20 C-26 19.34 -26 18.68 -26 18 C-25.34 18 -24.68 18 -24 18 C-24 17.34 -24 16.68 -24 16 C-23.34 16 -22.68 16 -22 16 C-22 15.34 -22 14.68 -22 14 C-21.34 14 -20.68 14 -20 14 C-20 13.34 -20 12.68 -20 12 C-18.68 12 -17.36 12 -16 12 C-16 11.34 -16 10.68 -16 10 C-15.34 10 -14.68 10 -14 10 C-14 9.34 -14 8.68 -14 8 C-12.68 8 -11.36 8 -10 8 C-10 7.34 -10 6.68 -10 6 C-9.34 6 -8.68 6 -8 6 C-8 5.34 -8 4.68 -8 4 C-6.68 4 -5.36 4 -4 4 C-4 3.34 -4 2.68 -4 2 C-2.68 2 -1.36 2 0 2 C0 1.34 0 0.68 0 0 Z " fill="#7FB747" transform="translate(90,30)"/>
<path d="M0 0 C3.58362776 0.13910487 7.16681498 0.28745413 10.75 0.4375 C11.76578125 0.47681641 12.7815625 0.51613281 13.828125 0.55664062 C15.29765625 0.61948242 15.29765625 0.61948242 16.796875 0.68359375 C18.14797363 0.73858032 18.14797363 0.73858032 19.52636719 0.79467773 C21.81150584 0.98435417 23.78630864 1.43530473 26 2 C27.80401519 2.20893476 29.61207423 2.38433952 31.421875 2.53515625 C32.95908203 2.66567383 32.95908203 2.66567383 34.52734375 2.79882812 C35.59082031 2.88583984 36.65429688 2.97285156 37.75 3.0625 C39.36841797 3.19881836 39.36841797 3.19881836 41.01953125 3.33789062 C43.67945748 3.56151274 46.33959943 3.78210596 49 4 C49 4.66 49 5.32 49 6 C50.98 6 52.96 6 55 6 C55 6.66 55 7.32 55 8 C56.98 8 58.96 8 61 8 C61 8.66 61 9.32 61 10 C62.32 10 63.64 10 65 10 C65.99 12.475 65.99 12.475 67 15 C68.98 15 70.96 15 73 15 C74.21256888 18.63770665 74.13930144 20.34396299 73 24 C70.296875 26.08984375 70.296875 26.08984375 66.75 27.9375 C66.12899414 28.26959473 65.50798828 28.60168945 64.86816406 28.94384766 C62.92134066 29.98126721 60.96142971 30.99052661 59 32 C56.57824419 33.28236197 54.16444357 34.5788534 51.75 35.875 C50.16445312 36.70644531 50.16445312 36.70644531 48.546875 37.5546875 C45.93512626 38.88754744 45.93512626 38.88754744 44 41 C42.33413654 41.6686712 40.66731644 42.33496006 39 43 C35.84522141 44.79000274 32.74897858 46.66337916 29.64453125 48.5390625 C27 50 27 50 25 50 C25 50.66 25 51.32 25 52 C24.12730469 52.4125 23.25460938 52.825 22.35546875 53.25 C19.09834209 54.94871099 16.26716772 56.82417774 13.3125 59 C12.38050781 59.680625 11.44851562 60.36125 10.48828125 61.0625 C8.04224891 62.85165858 8.04224891 62.85165858 6.41796875 64.75 C5 66 5 66 1 66 C0.85438374 59.97590184 0.71215793 53.95173536 0.57275391 47.92749023 C0.52512895 45.88840705 0.47665929 43.84934337 0.42724609 41.81030273 C0.09018731 27.87051462 -0.06524705 13.9438389 0 0 Z " fill="#0A7A78" transform="translate(175,12)"/>
<path d="M0 0 C2.64 0 5.28 0 8 0 C8 0.66 8 1.32 8 2 C11.3 2 14.6 2 18 2 C18 2.66 18 3.32 18 4 C19.32 4 20.64 4 22 4 C22 4.66 22 5.32 22 6 C23.32 6 24.64 6 26 6 C26 6.66 26 7.32 26 8 C26.66 8 27.32 8 28 8 C28 8.66 28 9.32 28 10 C28.66 10 29.32 10 30 10 C30 10.66 30 11.32 30 12 C30.66 12 31.32 12 32 12 C32 12.66 32 13.32 32 14 C32.66 14 33.32 14 34 14 C34 15.32 34 16.64 34 18 C34.66 18 35.32 18 36 18 C36 19.32 36 20.64 36 22 C36.66 22 37.32 22 38 22 C38 25.3 38 28.6 38 32 C38.66 32 39.32 32 40 32 C40 40.58 40 49.16 40 58 C39.34 58 38.68 58 38 58 C38 63.94 38 69.88 38 76 C36.68 76 35.36 76 34 76 C34 76.66 34 77.32 34 78 C32.68 78 31.36 78 30 78 C30 78.66 30 79.32 30 80 C28.68 80 27.36 80 26 80 C26 80.66 26 81.32 26 82 C24.68 82 23.36 82 22 82 C22 82.66 22 83.32 22 84 C20.02 84 18.04 84 16 84 C16 84.66 16 85.32 16 86 C14.68 86 13.36 86 12 86 C12 86.66 12 87.32 12 88 C8.7 88 5.4 88 2 88 C2 62.26 2 36.52 2 10 C1.34 10 0.68 10 0 10 C0 8.68 0 7.36 0 6 C-0.66 6 -1.32 6 -2 6 C-2 5.34 -2 4.68 -2 4 C-2.66 4 -3.32 4 -4 4 C-4 3.34 -4 2.68 -4 2 C-2.68 2 -1.36 2 0 2 C0 1.34 0 0.68 0 0 Z " fill="#138E91" transform="translate(222,228)"/>
<path d="M0 0 C0.66 0 1.32 0 2 0 C2 0.66 2 1.32 2 2 C2.70125 2.061875 3.4025 2.12375 4.125 2.1875 C8.02719119 3.29029316 9.94348424 5.34216021 13 8 C13.99 8.33 14.98 8.66 16 9 C16 9.66 16 10.32 16 11 C16.556875 11.12375 17.11375 11.2475 17.6875 11.375 C20.22114364 12.05976855 22.57921032 12.99133763 25 14 C25 14.66 25 15.32 25 16 C25.60328125 16.18175781 26.2065625 16.36351562 26.828125 16.55078125 C31.14044629 17.90707585 34.45833591 19.14381928 38 22 C39.21935763 22.62372672 40.45011508 23.22534873 41.6875 23.8125 C45.69411829 25.7410588 49.22394111 28.13063389 52.82421875 30.73046875 C57.90803295 33.69678763 63.60600804 33.12105122 69.3125 33.0625 C70.14845703 33.05798828 70.98441406 33.05347656 71.84570312 33.04882812 C73.89716649 33.03710548 75.94859273 33.01917203 78 33 C78 32.01 78 31.02 78 30 C78.66 30 79.32 30 80 30 C80 31.32 80 32.64 80 34 C74.72 34 69.44 34 64 34 C64 34.66 64 35.32 64 36 C62.02 36 60.04 36 58 36 C58 36.66 58 37.32 58 38 C57.34 38 56.68 38 56 38 C56 38.66 56 39.32 56 40 C54.68 40 53.36 40 52 40 C52 41.32 52 42.64 52 44 C51.34 44 50.68 44 50 44 C50 45.32 50 46.64 50 48 C49.34 48 48.68 48 48 48 C48 51.96 48 55.92 48 60 C48.66 60 49.32 60 50 60 C50 62.64 50 65.28 50 68 C49.34 68 48.68 68 48 68 C48 69.32 48 70.64 48 72 C47.34 72 46.68 72 46 72 C46 72.66 46 73.32 46 74 C45.34 74 44.68 74 44 74 C44 74.66 44 75.32 44 76 C43.34 76 42.68 76 42 76 C42 77.32 42 78.64 42 80 C41.34 80 40.68 80 40 80 C40 80.66 40 81.32 40 82 C39.34 82 38.68 82 38 82 C38 83.32 38 84.64 38 86 C37.34 86 36.68 86 36 86 C36 87.32 36 88.64 36 90 C35.34 90 34.68 90 34 90 C34 91.32 34 92.64 34 94 C33.34 94 32.68 94 32 94 C32 93.34 32 92.68 32 92 C31.34 92 30.68 92 30 92 C30 90.68 30 89.36 30 88 C29.34 88 28.68 88 28 88 C28 87.34 28 86.68 28 86 C27.34 86 26.68 86 26 86 C26 84.68 26 83.36 26 82 C25.34 82 24.68 82 24 82 C24 81.34 24 80.68 24 80 C23.34 80 22.68 80 22 80 C22 78.68 22 77.36 22 76 C21.34 76 20.68 76 20 76 C20 74.68 20 73.36 20 72 C19.34 72 18.68 72 18 72 C18 71.34 18 70.68 18 70 C17.34 70 16.68 70 16 70 C16 68.02 16 66.04 16 64 C15.34 64 14.68 64 14 64 C14 62.68 14 61.36 14 60 C13.34 60 12.68 60 12 60 C12 58.68 12 57.36 12 56 C11.34 56 10.68 56 10 56 C10 54.02 10 52.04 10 50 C9.34 50 8.68 50 8 50 C8 48.02 8 46.04 8 44 C7.34 44 6.68 44 6 44 C6 41.36 6 38.72 6 36 C5.34 36 4.68 36 4 36 C4 33.36 4 30.72 4 28 C3.34 28 2.68 28 2 28 C2 20.74 2 13.48 2 6 C1.34 6 0.68 6 0 6 C0 4.02 0 2.04 0 0 Z " fill="#C5D32F" transform="translate(6,168)"/>
<path d="M0 0 C0.66 0 1.32 0 2 0 C2 0.66 2 1.32 2 2 C3.98 2 5.96 2 8 2 C8 3.32 8 4.64 8 6 C7.34 6 6.68 6 6 6 C6 6.66 6 7.32 6 8 C5.34 8 4.68 8 4 8 C4 9.32 4 10.64 4 12 C3.34 12 2.68 12 2 12 C2 14.64 2 17.28 2 20 C1.34 20 0.68 20 0 20 C0 35.18 0 50.36 0 66 C0.66 66 1.32 66 2 66 C2 73.92 2 81.84 2 90 C0.68 90 -0.64 90 -2 90 C-2 89.34 -2 88.68 -2 88 C-3.98 88 -5.96 88 -8 88 C-8 87.34 -8 86.68 -8 86 C-8.66 86 -9.32 86 -10 86 C-10 85.34 -10 84.68 -10 84 C-11.98 84 -13.96 84 -16 84 C-16 83.34 -16 82.68 -16 82 C-17.32 82 -18.64 82 -20 82 C-20 81.34 -20 80.68 -20 80 C-21.32 80 -22.64 80 -24 80 C-24 79.34 -24 78.68 -24 78 C-25.32 78 -26.64 78 -28 78 C-28 77.34 -28 76.68 -28 76 C-28.66 76 -29.32 76 -30 76 C-30 75.34 -30 74.68 -30 74 C-31.32 74 -32.64 74 -34 74 C-34 72.02 -34 70.04 -34 68 C-34.66 68 -35.32 68 -36 68 C-36 57.44 -36 46.88 -36 36 C-35.34 36 -34.68 36 -34 36 C-34 32.04 -34 28.08 -34 24 C-33.34 24 -32.68 24 -32 24 C-32 22.68 -32 21.36 -32 20 C-31.34 20 -30.68 20 -30 20 C-30 18.68 -30 17.36 -30 16 C-29.34 16 -28.68 16 -28 16 C-28 15.34 -28 14.68 -28 14 C-27.34 14 -26.68 14 -26 14 C-26 13.34 -26 12.68 -26 12 C-25.34 12 -24.68 12 -24 12 C-24 11.34 -24 10.68 -24 10 C-23.34 10 -22.68 10 -22 10 C-22 9.34 -22 8.68 -22 8 C-21.34 8 -20.68 8 -20 8 C-20 7.34 -20 6.68 -20 6 C-18.68 6 -17.36 6 -16 6 C-16 5.34 -16 4.68 -16 4 C-14.68 4 -13.36 4 -12 4 C-12 3.34 -12 2.68 -12 2 C-8.04 2 -4.08 2 0 2 C0 1.34 0 0.68 0 0 Z " fill="#158F93" transform="translate(118,228)"/>
<path d="M0 0 C3.3 0 6.6 0 10 0 C10 0.66 10 1.32 10 2 C11.98 2 13.96 2 16 2 C16 2.66 16 3.32 16 4 C17.32 4 18.64 4 20 4 C20 4.66 20 5.32 20 6 C21.32 6 22.64 6 24 6 C24 6.66 24 7.32 24 8 C24.66 8 25.32 8 26 8 C26 8.66 26 9.32 26 10 C26.66 10 27.32 10 28 10 C28 11.32 28 12.64 28 14 C28.66 14 29.32 14 30 14 C30 15.32 30 16.64 30 18 C30.66 18 31.32 18 32 18 C32 19.32 32 20.64 32 22 C32.66 22 33.32 22 34 22 C34 27.28 34 32.56 34 38 C33.34 38 32.68 38 32 38 C32 39.32 32 40.64 32 42 C31.34 42 30.68 42 30 42 C30 43.32 30 44.64 30 46 C29.34 46 28.68 46 28 46 C28 46.66 28 47.32 28 48 C27.34 48 26.68 48 26 48 C26 48.66 26 49.32 26 50 C25.34 50 24.68 50 24 50 C24 50.66 24 51.32 24 52 C23.34 52 22.68 52 22 52 C22 52.66 22 53.32 22 54 C20.68 54 19.36 54 18 54 C18 54.66 18 55.32 18 56 C16.68 56 15.36 56 14 56 C14 56.66 14 57.32 14 58 C8.06 58 2.12 58 -4 58 C-4 57.34 -4 56.68 -4 56 C-5.32 56 -6.64 56 -8 56 C-8 55.34 -8 54.68 -8 54 C-9.32 54 -10.64 54 -12 54 C-12 53.34 -12 52.68 -12 52 C-12.66 52 -13.32 52 -14 52 C-14 51.34 -14 50.68 -14 50 C-14.66 50 -15.32 50 -16 50 C-16 49.34 -16 48.68 -16 48 C-16.66 48 -17.32 48 -18 48 C-18 47.34 -18 46.68 -18 46 C-18.66 46 -19.32 46 -20 46 C-20 44.68 -20 43.36 -20 42 C-20.66 42 -21.32 42 -22 42 C-22 40.68 -22 39.36 -22 38 C-22.66 38 -23.32 38 -24 38 C-24 32.72 -24 27.44 -24 22 C-23.34 22 -22.68 22 -22 22 C-22 20.02 -22 18.04 -22 16 C-21.34 16 -20.68 16 -20 16 C-20 15.34 -20 14.68 -20 14 C-19.34 14 -18.68 14 -18 14 C-18 12.68 -18 11.36 -18 10 C-17.34 10 -16.68 10 -16 10 C-16 9.34 -16 8.68 -16 8 C-15.34 8 -14.68 8 -14 8 C-14 7.34 -14 6.68 -14 6 C-12.68 6 -11.36 6 -10 6 C-10 5.34 -10 4.68 -10 4 C-8.68 4 -7.36 4 -6 4 C-6 3.34 -6 2.68 -6 2 C-4.02 2 -2.04 2 0 2 C0 1.34 0 0.68 0 0 Z " fill="#A1BD40" transform="translate(168,144)"/>
<path d="M0 0 C0.33 0 0.66 0 1 0 C1 8.58 1 17.16 1 26 C0.34 26 -0.32 26 -1 26 C-1 29.96 -1 33.92 -1 38 C-1.66 38 -2.32 38 -3 38 C-3 40.64 -3 43.28 -3 46 C-3.66 46 -4.32 46 -5 46 C-5 47.98 -5 49.96 -5 52 C-5.66 52 -6.32 52 -7 52 C-7 53.98 -7 55.96 -7 58 C-7.66 58 -8.32 58 -9 58 C-9 59.32 -9 60.64 -9 62 C-9.66 62 -10.32 62 -11 62 C-11 63.98 -11 65.96 -11 68 C-11.66 68 -12.32 68 -13 68 C-13 69.32 -13 70.64 -13 72 C-13.66 72 -14.32 72 -15 72 C-15 73.32 -15 74.64 -15 76 C-15.66 76 -16.32 76 -17 76 C-17 77.32 -17 78.64 -17 80 C-17.66 80 -18.32 80 -19 80 C-19 80.66 -19 81.32 -19 82 C-19.66 82 -20.32 82 -21 82 C-21 83.32 -21 84.64 -21 86 C-21.66 86 -22.32 86 -23 86 C-23 86.66 -23 87.32 -23 88 C-23.66 88 -24.32 88 -25 88 C-25 89.32 -25 90.64 -25 92 C-25.66 92 -26.32 92 -27 92 C-27 92.66 -27 93.32 -27 94 C-27.66 94 -28.32 94 -29 94 C-29 95.32 -29 96.64 -29 98 C-29.66 98 -30.32 98 -31 98 C-31 98.66 -31 99.32 -31 100 C-31.66 100 -32.32 100 -33 100 C-33 98.68 -33 97.36 -33 96 C-33.66 96 -34.32 96 -35 96 C-35 94.68 -35 93.36 -35 92 C-35.66 92 -36.32 92 -37 92 C-37 90.02 -37 88.04 -37 86 C-37.66 86 -38.32 86 -39 86 C-39 85.34 -39 84.68 -39 84 C-39.66 84 -40.32 84 -41 84 C-41 82.68 -41 81.36 -41 80 C-41.66 80 -42.32 80 -43 80 C-43 79.34 -43 78.68 -43 78 C-43.66 78 -44.32 78 -45 78 C-45 77.34 -45 76.68 -45 76 C-45.66 76 -46.32 76 -47 76 C-47 74.02 -47 72.04 -47 70 C-46.34 70 -45.68 70 -45 70 C-45 68.02 -45 66.04 -45 64 C-44.34 64 -43.68 64 -43 64 C-43 60.7 -43 57.4 -43 54 C-43.66 54 -44.32 54 -45 54 C-45 52.02 -45 50.04 -45 48 C-45.66 48 -46.32 48 -47 48 C-47 47.34 -47 46.68 -47 46 C-47.66 46 -48.32 46 -49 46 C-49 45.34 -49 44.68 -49 44 C-49.66 44 -50.32 44 -51 44 C-51 43.34 -51 42.68 -51 42 C-51.66 42 -52.32 42 -53 42 C-53 41.34 -53 40.68 -53 40 C-54.98 40 -56.96 40 -59 40 C-59 39.34 -59 38.68 -59 38 C-61.64 38 -64.28 38 -67 38 C-66.67 37.34 -66.34 36.68 -66 36 C-64.94941406 36.21398437 -63.89882813 36.42796875 -62.81640625 36.6484375 C-55.08590609 38.21210986 -55.08590609 38.21210986 -47.4609375 37.11328125 C-45.3867443 35.69420671 -45.3867443 35.69420671 -43.375 33.95703125 C-40.43908189 31.5377961 -37.23039511 29.75052401 -33.9375 27.875 C-27.47975299 24.09193826 -21.5186552 19.8120462 -15.59326172 15.24731445 C-11.38110372 12.00312565 -7.12063533 9.03330646 -2.50390625 6.37890625 C-0.42538092 4.47314147 -0.3242588 2.73564819 0 0 Z " fill="#6BA789" transform="translate(337,164)"/>
<path d="M0 0 C5.28 0 10.56 0 16 0 C16 0.66 16 1.32 16 2 C17.32 2 18.64 2 20 2 C20 2.66 20 3.32 20 4 C20.66 4 21.32 4 22 4 C22 4.66 22 5.32 22 6 C22.66 6 23.32 6 24 6 C24 7.32 24 8.64 24 10 C24.66 10 25.32 10 26 10 C26 11.32 26 12.64 26 14 C26.66 14 27.32 14 28 14 C28 17.96 28 21.92 28 26 C27.34 26 26.68 26 26 26 C26 27.32 26 28.64 26 30 C25.34 30 24.68 30 24 30 C24 30.66 24 31.32 24 32 C23.34 32 22.68 32 22 32 C22 32.66 22 33.32 22 34 C21.34 34 20.68 34 20 34 C20 34.66 20 35.32 20 36 C19.34 36 18.68 36 18 36 C18 36.66 18 37.32 18 38 C16.68 38 15.36 38 14 38 C14 38.66 14 39.32 14 40 C10.04 40 6.08 40 2 40 C2 39.34 2 38.68 2 38 C0.68 38 -0.64 38 -2 38 C-2 37.34 -2 36.68 -2 36 C-2.66 36 -3.32 36 -4 36 C-4 35.34 -4 34.68 -4 34 C-4.66 34 -5.32 34 -6 34 C-6 33.34 -6 32.68 -6 32 C-6.66 32 -7.32 32 -8 32 C-8 31.34 -8 30.68 -8 30 C-8.66 30 -9.32 30 -10 30 C-10 28.68 -10 27.36 -10 26 C-10.66 26 -11.32 26 -12 26 C-12 21.38 -12 16.76 -12 12 C-11.34 12 -10.68 12 -10 12 C-10 10.68 -10 9.36 -10 8 C-9.34 8 -8.68 8 -8 8 C-8 7.34 -8 6.68 -8 6 C-7.34 6 -6.68 6 -6 6 C-6 5.34 -6 4.68 -6 4 C-5.34 4 -4.68 4 -4 4 C-4 3.34 -4 2.68 -4 2 C-2.68 2 -1.36 2 0 2 C0 1.34 0 0.68 0 0 Z " fill="#1D8E92" transform="translate(108,182)"/>
<path d="M0 0 C2.64 0 5.28 0 8 0 C8 0.66 8 1.32 8 2 C9.98 2 11.96 2 14 2 C14 2.66 14 3.32 14 4 C15.32 4 16.64 4 18 4 C18 4.66 18 5.32 18 6 C18.66 6 19.32 6 20 6 C20 7.32 20 8.64 20 10 C20.66 10 21.32 10 22 10 C22 10.66 22 11.32 22 12 C22.66 12 23.32 12 24 12 C24 17.94 24 23.88 24 30 C23.34 30 22.68 30 22 30 C22 30.66 22 31.32 22 32 C21.34 32 20.68 32 20 32 C20 33.32 20 34.64 20 36 C18.68 36 17.36 36 16 36 C16 36.66 16 37.32 16 38 C15.34 38 14.68 38 14 38 C14 38.66 14 39.32 14 40 C8.06 40 2.12 40 -4 40 C-4 39.34 -4 38.68 -4 38 C-4.66 38 -5.32 38 -6 38 C-6 37.34 -6 36.68 -6 36 C-7.32 36 -8.64 36 -10 36 C-10 35.34 -10 34.68 -10 34 C-10.66 34 -11.32 34 -12 34 C-12 32.68 -12 31.36 -12 30 C-12.66 30 -13.32 30 -14 30 C-14 28.02 -14 26.04 -14 24 C-14.66 24 -15.32 24 -16 24 C-16 22.02 -16 20.04 -16 18 C-15.34 18 -14.68 18 -14 18 C-14 16.02 -14 14.04 -14 12 C-13.34 12 -12.68 12 -12 12 C-12 10.68 -12 9.36 -12 8 C-11.34 8 -10.68 8 -10 8 C-10 7.34 -10 6.68 -10 6 C-9.34 6 -8.68 6 -8 6 C-8 5.34 -8 4.68 -8 4 C-6.68 4 -5.36 4 -4 4 C-4 3.34 -4 2.68 -4 2 C-2.68 2 -1.36 2 0 2 C0 1.34 0 0.68 0 0 Z " fill="#218F93" transform="translate(222,182)"/>
<path d="M0 0 C3.96 0 7.92 0 12 0 C12 0.66 12 1.32 12 2 C13.98 2 15.96 2 18 2 C18 2.66 18 3.32 18 4 C18.66 4 19.32 4 20 4 C20 4.66 20 5.32 20 6 C20.66 6 21.32 6 22 6 C22 6.66 22 7.32 22 8 C22.66 8 23.32 8 24 8 C24 9.98 24 11.96 24 14 C24.66 14 25.32 14 26 14 C26 22.58 26 31.16 26 40 C25.34 40 24.68 40 24 40 C24 41.32 24 42.64 24 44 C22.68 44 21.36 44 20 44 C20 44.66 20 45.32 20 46 C19.34 46 18.68 46 18 46 C18 46.66 18 47.32 18 48 C17.34 48 16.68 48 16 48 C16 48.66 16 49.32 16 50 C15.34 50 14.68 50 14 50 C14 50.66 14 51.32 14 52 C12.68 52 11.36 52 10 52 C10 52.66 10 53.32 10 54 C9.34 54 8.68 54 8 54 C8 54.66 8 55.32 8 56 C6.68 56 5.36 56 4 56 C4 40.82 4 25.64 4 10 C3.34 10 2.68 10 2 10 C2 8.02 2 6.04 2 4 C1.34 4 0.68 4 0 4 C0 2.68 0 1.36 0 0 Z " fill="#169294" transform="translate(264,240)"/>
<path d="M0 0 C4.62 0 9.24 0 14 0 C14 1.32 14 2.64 14 4 C13.34 4 12.68 4 12 4 C12 5.32 12 6.64 12 8 C11.34 8 10.68 8 10 8 C10 21.86 10 35.72 10 50 C8.68 50 7.36 50 6 50 C6 49.34 6 48.68 6 48 C4.68 48 3.36 48 2 48 C2 47.34 2 46.68 2 46 C1.34 46 0.68 46 0 46 C0 45.34 0 44.68 0 44 C-1.32 44 -2.64 44 -4 44 C-4 43.34 -4 42.68 -4 42 C-4.66 42 -5.32 42 -6 42 C-6 41.34 -6 40.68 -6 40 C-6.66 40 -7.32 40 -8 40 C-8 38.68 -8 37.36 -8 36 C-8.66 36 -9.32 36 -10 36 C-10 35.34 -10 34.68 -10 34 C-10.66 34 -11.32 34 -12 34 C-12 32.68 -12 31.36 -12 30 C-12.66 30 -13.32 30 -14 30 C-14 24.72 -14 19.44 -14 14 C-13.34 14 -12.68 14 -12 14 C-12 12.68 -12 11.36 -12 10 C-11.34 10 -10.68 10 -10 10 C-10 9.34 -10 8.68 -10 8 C-9.34 8 -8.68 8 -8 8 C-8 7.34 -8 6.68 -8 6 C-7.34 6 -6.68 6 -6 6 C-6 5.34 -6 4.68 -6 4 C-5.34 4 -4.68 4 -4 4 C-4 3.34 -4 2.68 -4 2 C-2.68 2 -1.36 2 0 2 C0 1.34 0 0.68 0 0 Z " fill="#399BA0" transform="translate(66,244)"/>
<path d="M0 0 C2.64 0 5.28 0 8 0 C8 0.66 8 1.32 8 2 C9.98 2 11.96 2 14 2 C14 3.32 14 4.64 14 6 C14.66 6 15.32 6 16 6 C16 6.66 16 7.32 16 8 C16.66 8 17.32 8 18 8 C18 11.3 18 14.6 18 18 C17.34 18 16.68 18 16 18 C16 19.32 16 20.64 16 22 C15.34 22 14.68 22 14 22 C14 22.66 14 23.32 14 24 C12.68 24 11.36 24 10 24 C10 24.66 10 25.32 10 26 C6.7 26 3.4 26 0 26 C0 25.34 0 24.68 0 24 C-1.32 24 -2.64 24 -4 24 C-4 23.34 -4 22.68 -4 22 C-4.66 22 -5.32 22 -6 22 C-6 20.68 -6 19.36 -6 18 C-6.66 18 -7.32 18 -8 18 C-8 14.7 -8 11.4 -8 8 C-7.34 8 -6.68 8 -6 8 C-6 6.68 -6 5.36 -6 4 C-5.34 4 -4.68 4 -4 4 C-4 3.34 -4 2.68 -4 2 C-2.68 2 -1.36 2 0 2 C0 1.34 0 0.68 0 0 Z " fill="#1E9295" transform="translate(264,208)"/>
<path d="M0 0 C0.66 0 1.32 0 2 0 C2 0.66 2 1.32 2 2 C3.98 2 5.96 2 8 2 C8 2.66 8 3.32 8 4 C8.66 4 9.32 4 10 4 C10 4.66 10 5.32 10 6 C10.66 6 11.32 6 12 6 C12 6.66 12 7.32 12 8 C12.66 8 13.32 8 14 8 C14 11.96 14 15.92 14 20 C13.34 20 12.68 20 12 20 C12 21.32 12 22.64 12 24 C10.68 24 9.36 24 8 24 C8 24.66 8 25.32 8 26 C6.02 26 4.04 26 2 26 C2 26.66 2 27.32 2 28 C1.34 28 0.68 28 0 28 C0 27.34 0 26.68 0 26 C-1.98 26 -3.96 26 -6 26 C-6 25.34 -6 24.68 -6 24 C-6.66 24 -7.32 24 -8 24 C-8 23.34 -8 22.68 -8 22 C-8.66 22 -9.32 22 -10 22 C-10 20.68 -10 19.36 -10 18 C-10.66 18 -11.32 18 -12 18 C-12 16.02 -12 14.04 -12 12 C-11.34 12 -10.68 12 -10 12 C-10 10.02 -10 8.04 -10 6 C-9.34 6 -8.68 6 -8 6 C-8 5.34 -8 4.68 -8 4 C-6.68 4 -5.36 4 -4 4 C-4 3.34 -4 2.68 -4 2 C-2.68 2 -1.36 2 0 2 C0 1.34 0 0.68 0 0 Z " fill="#309B9A" transform="translate(74,206)"/>
<path d="M0 0 C0.66 0 1.32 0 2 0 C2 0.66 2 1.32 2 2 C3.98 2 5.96 2 8 2 C8 3.32 8 4.64 8 6 C7.34 6 6.68 6 6 6 C6 6.66 6 7.32 6 8 C5.34 8 4.68 8 4 8 C4 9.32 4 10.64 4 12 C3.34 12 2.68 12 2 12 C2.33 9.69 2.66 7.38 3 5 C3.99 5 4.98 5 6 5 C6 4.34 6 3.68 6 3 C4.22882813 3.32484375 4.22882813 3.32484375 2.421875 3.65625 C0.86461627 3.9376823 -0.69267724 4.21892223 -2.25 4.5 C-3.02730469 4.64308594 -3.80460937 4.78617188 -4.60546875 4.93359375 C-5.35957031 5.06894531 -6.11367187 5.20429688 -6.890625 5.34375 C-7.58188477 5.46943359 -8.27314453 5.59511719 -8.98535156 5.72460938 C-11 6 -11 6 -15 6 C-15.165 6.99 -15.33 7.98 -15.5 9 C-16.97464232 14.20898832 -20.83109176 17.73247732 -25 21 C-27.76171875 22.23046875 -27.76171875 22.23046875 -30 23 C-30 23.66 -30 24.32 -30 25 C-30.66 25 -31.32 25 -32 25 C-32 39.85 -32 54.7 -32 70 C-31.34 70.33 -30.68 70.66 -30 71 C-30 71.99 -30 72.98 -30 74 C-31.32 74 -32.64 74 -34 74 C-34 72.02 -34 70.04 -34 68 C-34.66 68 -35.32 68 -36 68 C-36 57.44 -36 46.88 -36 36 C-35.34 36 -34.68 36 -34 36 C-34 32.04 -34 28.08 -34 24 C-33.34 24 -32.68 24 -32 24 C-32 22.68 -32 21.36 -32 20 C-31.34 20 -30.68 20 -30 20 C-30 18.68 -30 17.36 -30 16 C-29.34 16 -28.68 16 -28 16 C-28 15.34 -28 14.68 -28 14 C-27.34 14 -26.68 14 -26 14 C-26 13.34 -26 12.68 -26 12 C-25.34 12 -24.68 12 -24 12 C-24 11.34 -24 10.68 -24 10 C-23.34 10 -22.68 10 -22 10 C-22 9.34 -22 8.68 -22 8 C-21.34 8 -20.68 8 -20 8 C-20 7.34 -20 6.68 -20 6 C-18.68 6 -17.36 6 -16 6 C-16 5.34 -16 4.68 -16 4 C-14.68 4 -13.36 4 -12 4 C-12 3.34 -12 2.68 -12 2 C-8.04 2 -4.08 2 0 2 C0 1.34 0 0.68 0 0 Z " fill="#209597" transform="translate(118,228)"/>
<path d="M0 0 C2.64 0 5.28 0 8 0 C8 0.66 8 1.32 8 2 C11.3 2 14.6 2 18 2 C18 2.66 18 3.32 18 4 C19.32 4 20.64 4 22 4 C22 4.66 22 5.32 22 6 C23.32 6 24.64 6 26 6 C25.67 6.66 25.34 7.32 25 8 C23.72125 7.814375 22.4425 7.62875 21.125 7.4375 C14.98592319 6.74782523 8.88085051 7.0397165 3 9 C3.33 9.66 3.66 10.32 4 11 C4.09270774 13.38047502 4.12585532 15.7313628 4.11352539 18.11181641 C4.11367142 18.84362625 4.11381744 19.5754361 4.1139679 20.329422 C4.11327003 22.75349876 4.10548354 25.17749912 4.09765625 27.6015625 C4.09579162 29.28022215 4.09436793 30.95888234 4.09336853 32.63754272 C4.08954688 37.05987038 4.07971959 41.48216528 4.06866455 45.90447998 C4.05844286 50.41548215 4.05386928 54.92648959 4.04882812 59.4375 C4.03809702 68.29168107 4.02102481 77.14583781 4 86 C4.74636719 85.83628906 5.49273437 85.67257812 6.26171875 85.50390625 C9.54381541 84.89992555 12.67010069 84.93470786 16 85 C14.02 85.495 14.02 85.495 12 86 C12 86.66 12 87.32 12 88 C8.7 88 5.4 88 2 88 C2 62.26 2 36.52 2 10 C1.34 10 0.68 10 0 10 C0 8.68 0 7.36 0 6 C-0.66 6 -1.32 6 -2 6 C-2 5.34 -2 4.68 -2 4 C-2.66 4 -3.32 4 -4 4 C-4 3.34 -4 2.68 -4 2 C-2.68 2 -1.36 2 0 2 C0 1.34 0 0.68 0 0 Z " fill="#7AADB9" transform="translate(222,228)"/>
<path d="M0 0 C0.66 0 1.32 0 2 0 C2 1.98 2 3.96 2 6 C2.66 6 3.32 6 4 6 C4 31.08 4 56.16 4 82 C2.02 82 0.04 82 -2 82 C-2 82.66 -2 83.32 -2 84 C-3.98 84 -5.96 84 -8 84 C-8 84.66 -8 85.32 -8 86 C-9.98 86 -11.96 86 -14 86 C-11 84 -11 84 -9 84 C-9 83.34 -9 82.68 -9 82 C-8.0925 81.71125 -7.185 81.4225 -6.25 81.125 C-3.66901709 80.23158284 -1.41157674 79.24772883 1 78 C0.91621094 77.06800781 0.83242187 76.13601563 0.74609375 75.17578125 C0.64425781 73.90089844 0.54242188 72.62601562 0.4375 71.3125 C0.33308594 70.07113281 0.22867188 68.82976562 0.12109375 67.55078125 C-0.05386377 64.10005655 0.15143696 60.78729578 0.46484375 57.34765625 C1.21364188 48.58208964 1.14973404 39.82300284 1.13037109 31.03222656 C1.12497224 28.10997422 1.13036604 25.18787293 1.13671875 22.265625 C1.13605853 20.3880205 1.13477853 18.51041609 1.1328125 16.6328125 C1.13483673 15.7691507 1.13686096 14.90548889 1.13894653 14.01565552 C1.12054674 9.23846834 0.79940358 4.71147987 0 0 Z " fill="#BDCF77" transform="translate(214,238)"/>
<path d="M0 0 C0.33 0 0.66 0 1 0 C1 16.17 1 32.34 1 49 C1.66 49 2.32 49 3 49 C3 56.92 3 64.84 3 73 C1.68 73 0.36 73 -1 73 C-1 72.34 -1 71.68 -1 71 C-2.98 71 -4.96 71 -7 71 C-7 70.34 -7 69.68 -7 69 C-7.66 68.67 -8.32 68.34 -9 68 C-6.36 68.33 -3.72 68.66 -1 69 C-1.00222061 68.16506012 -1.00444122 67.33012024 -1.00672913 66.46987915 C-1.02674299 58.61208268 -1.04197974 50.75429473 -1.05181217 42.89647865 C-1.05703699 38.85643046 -1.06412739 34.81640328 -1.07543945 30.77636719 C-1.08628254 26.879559 -1.09227987 22.98277105 -1.09487724 19.08594894 C-1.09672892 17.59715837 -1.10034463 16.10836893 -1.10573006 14.61958694 C-1.11295934 12.53884715 -1.11399014 10.45819168 -1.11352539 8.37744141 C-1.115746 7.19163483 -1.11796661 6.00582825 -1.12025452 4.78408813 C-1 2 -1 2 0 0 Z " fill="#59A3A4" transform="translate(117,245)"/>
<path d="M0 0 C13.86 0 27.72 0 42 0 C42 0.66 42 1.32 42 2 C46.62 2 51.24 2 56 2 C56 2.66 56 3.32 56 4 C58.64 4 61.28 4 64 4 C64 4.66 64 5.32 64 6 C56.0929698 5.67054041 48.50239975 5.03308889 40.75 3.4375 C30.5698709 1.39319963 21.96425163 1.93893951 11.76171875 3.56640625 C6.99476329 4.11586841 2.35187236 4.00534872 -2.43554688 3.88623047 C-6.22061931 3.84241313 -9.20596404 4.12354664 -12.6875 5.625 C-16 7 -16 7 -19 6.1875 C-19.66 5.795625 -20.32 5.40375 -21 5 C-21 5.66 -21 6.32 -21 7 C-23.97 7 -26.94 7 -30 7 C-30 6.67 -30 6.34 -30 6 C-27.36 6 -24.72 6 -22 6 C-22 5.34 -22 4.68 -22 4 C-19.36 4 -16.72 4 -14 4 C-14 3.34 -14 2.68 -14 2 C-9.38 2 -4.76 2 0 2 C0 1.34 0 0.68 0 0 Z " fill="#71A695" transform="translate(152,10)"/>
<path d="M0 0 C4.48516868 3.6589534 5.6980653 6.41631438 6.640625 12.109375 C6.81721297 14.00475432 6.81721297 14.00475432 8 15 C9.27702713 23.46621687 9.10408594 32.14885924 9.125 40.6875 C9.12959229 41.76330322 9.13418457 42.83910645 9.13891602 43.94750977 C9.13690186 44.95869873 9.1348877 45.9698877 9.1328125 47.01171875 C9.13168457 47.92397217 9.13055664 48.83622559 9.12939453 49.77612305 C9 52 9 52 8 54 C8.04125 55.258125 8.0825 56.51625 8.125 57.8125 C8.18806384 61.659394 7.41749748 63.90560323 5 67 C4.67 67 4.34 67 4 67 C4 62.71 4 58.42 4 54 C4.66 54 5.32 54 6 54 C6 42.12 6 30.24 6 18 C5.34 18 4.68 18 4 18 C4 14.7 4 11.4 4 8 C3.34 8 2.68 8 2 8 C2 6.68 2 5.36 2 4 C1.34 4 0.68 4 0 4 C0 2.68 0 1.36 0 0 Z " fill="#94C3BF" transform="translate(258,130)"/>
<path d="M0 0 C3.96 0 7.92 0 12 0 C12 0.66 12 1.32 12 2 C13.98 2 15.96 2 18 2 C18 2.66 18 3.32 18 4 C18.66 4 19.32 4 20 4 C20 4.66 20 5.32 20 6 C19.01 5.855625 18.02 5.71125 17 5.5625 C13.00590535 4.99074821 9.00467063 4.49180166 5 4 C5.33 4.99 5.66 5.98 6 7 C6.72425311 22.93356844 5.56772396 39.06900142 5 55 C6.485 54.505 6.485 54.505 8 54 C8 54.66 8 55.32 8 56 C6.68 56 5.36 56 4 56 C4 40.82 4 25.64 4 10 C3.34 10 2.68 10 2 10 C2 8.02 2 6.04 2 4 C1.34 4 0.68 4 0 4 C0 2.68 0 1.36 0 0 Z " fill="#81B8BF" transform="translate(264,240)"/>
<path d="M0 0 C0.66 0 1.32 0 2 0 C2 1.65 2 3.3 2 5 C1.34 5 0.68 5 0 5 C0 19.85 0 34.7 0 50 C0.66 50.33 1.32 50.66 2 51 C2 51.99 2 52.98 2 54 C0.68 54 -0.64 54 -2 54 C-2 52.02 -2 50.04 -2 48 C-2.66 48 -3.32 48 -4 48 C-4 37.44 -4 26.88 -4 16 C-3.34 16 -2.68 16 -2 16 C-2 12.04 -2 8.08 -2 4 C-1.34 4 -0.68 4 0 4 C0 2.68 0 1.36 0 0 Z " fill="#8BC4C9" transform="translate(86,248)"/>
<path d="M0 0 C2.64 0 5.28 0 8 0 C8 0.66 8 1.32 8 2 C11.3 2 14.6 2 18 2 C18 2.66 18 3.32 18 4 C19.32 4 20.64 4 22 4 C22 4.66 22 5.32 22 6 C23.32 6 24.64 6 26 6 C25.67 6.66 25.34 7.32 25 8 C23.72125 7.814375 22.4425 7.62875 21.125 7.4375 C16.71428322 6.9358071 12.65433712 7.18729045 8.26171875 7.74609375 C6 8 6 8 2 8 C2 7.34 2 6.68 2 6 C0.68 6 -0.64 6 -2 6 C-2 5.34 -2 4.68 -2 4 C-2.66 4 -3.32 4 -4 4 C-4 3.34 -4 2.68 -4 2 C-2.68 2 -1.36 2 0 2 C0 1.34 0 0.68 0 0 Z " fill="#129694" transform="translate(222,228)"/>
<path d="M0 0 C0.33 1.32 0.66 2.64 1 4 C1.66 4 2.32 4 3 4 C3 9.28 3 14.56 3 20 C2.34 20 1.68 20 1 20 C1 21.32 1 22.64 1 24 C0.34 24 -0.32 24 -1 24 C-1 25.32 -1 26.64 -1 28 C-1.66 28 -2.32 28 -3 28 C-3 28.66 -3 29.32 -3 30 C-3.66 30 -4.32 30 -5 30 C-5 30.66 -5 31.32 -5 32 C-5.66 32 -6.32 32 -7 32 C-7 32.66 -7 33.32 -7 34 C-7.66 34 -8.32 34 -9 34 C-9 34.66 -9 35.32 -9 36 C-10.32 36 -11.64 36 -13 36 C-13 35.01 -13 34.02 -13 33 C-12.360625 32.7525 -11.72125 32.505 -11.0625 32.25 C-8.84359462 31.18591701 -8.84359462 31.18591701 -8.1875 29 C-7.81548911 26.92839876 -7.81548911 26.92839876 -9 25 C-8.34 25 -7.68 25 -7 25 C-7 24.34 -7 23.68 -7 23 C-6.34 23 -5.68 23 -5 23 C-4.67 22.01 -4.34 21.02 -4 20 C-3.01 19.67 -2.02 19.34 -1 19 C0.25433458 15.23699626 0.10695422 11.72789091 0.0625 7.8125 C0.05798828 7.06291016 0.05347656 6.31332031 0.04882812 5.54101562 C0.03706354 3.69397617 0.01912865 1.84697787 0 0 Z " fill="#A9C546" transform="translate(199,162)"/>
<path d="M0 0 C0.99 0 1.98 0 3 0 C3 0.66 3 1.32 3 2 C3.66 2 4.32 2 5 2 C5 2.66 5 3.32 5 4 C6.32 4 7.64 4 9 4 C9 4.66 9 5.32 9 6 C9.66 6 10.32 6 11 6 C11 6.66 11 7.32 11 8 C12.32 8 13.64 8 15 8 C15 8.66 15 9.32 15 10 C15.66 10 16.32 10 17 10 C17 10.66 17 11.32 17 12 C17.66 12 18.32 12 19 12 C19 12.66 19 13.32 19 14 C19.66 14 20.32 14 21 14 C20.67 14.66 20.34 15.32 20 16 C16.9375 16.625 16.9375 16.625 14 17 C13.34 16.01 12.68 15.02 12 14 C11.01 13.67 10.02 13.34 9 13 C9 12.34 9 11.68 9 11 C6.03 10.01 3.06 9.02 0 8 C0.33 7.01 0.66 6.02 1 5 C0.60602665 2.36195411 0.60602665 2.36195411 0 0 Z " fill="#328088" transform="translate(263,36)"/>
<path d="M0 0 C0.66 0 1.32 0 2 0 C2 3.3 2 6.6 2 10 C2.66 10 3.32 10 4 10 C4 18.58 4 27.16 4 36 C3.34 36 2.68 36 2 36 C2 41.94 2 47.88 2 54 C1.01 53.67 0.02 53.34 -1 53 C-0.34 53 0.32 53 1 53 C0.96447021 52.30962646 0.92894043 51.61925293 0.89233398 50.90795898 C0.73380686 47.75144316 0.58557114 44.59452289 0.4375 41.4375 C0.38142578 40.35146484 0.32535156 39.26542969 0.26757812 38.14648438 C0.01374297 32.57903329 0.01552853 27.48285938 1 22 C1.4437933 14.66435781 0.63210024 7.30301533 0 0 Z " fill="#8AC6C4" transform="translate(258,250)"/>
<path d="M0 0 C1.00335818 3.12155879 0.80670923 4.87400172 0 8 C0.33 8.99 0.66 9.98 1 11 C-0.32 11 -1.64 11 -3 11 C-3 11.66 -3 12.32 -3 13 C-3.66 13 -4.32 13 -5 13 C-5 13.66 -5 14.32 -5 15 C-10.94 15 -16.88 15 -23 15 C-22.67 14.34 -22.34 13.68 -22 13 C-21.38511719 13.05800781 -20.77023438 13.11601562 -20.13671875 13.17578125 C-17.6774049 13.31306352 -15.43879417 13.36146414 -13 13 C-11.10141725 10.69694835 -11.10141725 10.69694835 -10 8 C-8.6846659 7.29848848 -7.34882408 6.63474075 -6 6 C-4.29413425 4.37347684 -2.6222454 2.70993434 -1 1 C-0.67 0.67 -0.34 0.34 0 0 Z " fill="#46A5A7" transform="translate(241,207)"/>
<path d="M0 0 C1.32 0 2.64 0 4 0 C4 0.99 4 1.98 4 3 C3.443125 3.27972656 2.88625 3.55945313 2.3125 3.84765625 C-3.35709795 6.82611058 -8.73918207 10.14136323 -13 15 C-13.1753125 15.71027344 -13.350625 16.42054688 -13.53125 17.15234375 C-13.6859375 17.76207031 -13.840625 18.37179688 -14 19 C-14.99 19.33 -15.98 19.66 -17 20 C-17.66 19.67 -18.32 19.34 -19 19 C-19.33 19.66 -19.66 20.32 -20 21 C-20 20.01 -20 19.02 -20 18 C-19.34 18 -18.68 18 -18 18 C-18 17.34 -18 16.68 -18 16 C-17.34 16 -16.68 16 -16 16 C-16 15.34 -16 14.68 -16 14 C-15.34 14 -14.68 14 -14 14 C-14 12.68 -14 11.36 -14 10 C-13.34 10 -12.68 10 -12 10 C-12 9.34 -12 8.68 -12 8 C-11.34 8 -10.68 8 -10 8 C-10 7.34 -10 6.68 -10 6 C-8.68 6 -7.36 6 -6 6 C-6 5.34 -6 4.68 -6 4 C-5.34 4 -4.68 4 -4 4 C-4 3.34 -4 2.68 -4 2 C-2.68 2 -1.36 2 0 2 C0 1.34 0 0.68 0 0 Z " fill="#A8C157" transform="translate(150,214)"/>
<path d="M0 0 C1.32 0.33 2.64 0.66 4 1 C3.01 1 2.02 1 1 1 C1 1.66 1 2.32 1 3 C0.01 3 -0.98 3 -2 3 C-2.2475 3.515625 -2.495 4.03125 -2.75 4.5625 C-4.39581616 7.77184151 -6.1976096 10.87585664 -8 14 C-7.34 14 -6.68 14 -6 14 C-5.67 13.01 -5.34 12.02 -5 11 C-4.67 11.99 -4.34 12.98 -4 14 C-5.65 14.66 -7.3 15.32 -9 16 C-8.01 21.28 -7.02 26.56 -6 32 C-6.66 32 -7.32 32 -8 32 C-8 30.68 -8 29.36 -8 28 C-8.66 28 -9.32 28 -10 28 C-10 26.02 -10 24.04 -10 22 C-10.66 22 -11.32 22 -12 22 C-12 20.02 -12 18.04 -12 16 C-11.34 16 -10.68 16 -10 16 C-10 14.02 -10 12.04 -10 10 C-9.34 10 -8.68 10 -8 10 C-8 8.68 -8 7.36 -8 6 C-7.34 6 -6.68 6 -6 6 C-6 5.34 -6 4.68 -6 4 C-5.34 4 -4.68 4 -4 4 C-4 3.34 -4 2.68 -4 2 C-2.68 2 -1.36 2 0 2 C0 1.34 0 0.68 0 0 Z " fill="#61ABAF" transform="translate(218,184)"/>
<path d="M0 0 C8.58 0 17.16 0 26 0 C26 0.66 26 1.32 26 2 C27.98 2 29.96 2 32 2 C32 2.66 32 3.32 32 4 C33.32 4.33 34.64 4.66 36 5 C31.81233983 5.11964743 28.12337403 4.58366984 24.09130859 3.4753418 C20.64093488 2.69109272 17.14564971 2.81552461 13.625 2.8125 C12.8825 2.80025391 12.14 2.78800781 11.375 2.77539062 C6.85322517 2.76340712 3.25941878 3.2894715 -1 5 C-1 4.34 -1 3.68 -1 3 C-1.99 2.67 -2.98 2.34 -4 2 C-2.68 2 -1.36 2 0 2 C0 1.34 0 0.68 0 0 Z " fill="#C1D17B" transform="translate(158,210)"/>
<path d="M0 0 C0.99 0.495 0.99 0.495 2 1 C1.99476318 1.6391333 1.98952637 2.2782666 1.98413086 2.93676758 C1.9630573 5.89533463 1.9502448 8.85388579 1.9375 11.8125 C1.92912109 12.81732422 1.92074219 13.82214844 1.91210938 14.85742188 C1.89264445 20.91101219 2.17752704 26.81238983 2.88110352 32.8269043 C3 35 3 35 2 37 C2.28112064 39.00800456 2.61067967 41.01014051 3 43 C2.01 43 1.02 43 0 43 C0 28.81 0 14.62 0 0 Z " fill="#0D9898" transform="translate(226,271)"/>
<path d="M0 0 C0.66 0 1.32 0 2 0 C2 1.32 2 2.64 2 4 C-3.28 4 -8.56 4 -14 4 C-14 4.66 -14 5.32 -14 6 C-15.98 6 -17.96 6 -20 6 C-20 6.66 -20 7.32 -20 8 C-20.66 8 -21.32 8 -22 8 C-22 8.66 -22 9.32 -22 10 C-23.32 10 -24.64 10 -26 10 C-26 11.32 -26 12.64 -26 14 C-26.66 14 -27.32 14 -28 14 C-28 15.32 -28 16.64 -28 18 C-28.66 18 -29.32 18 -30 18 C-30 15.69 -30 13.38 -30 11 C-29.34 11 -28.68 11 -28 11 C-27.67 10.01 -27.34 9.02 -27 8 C-26.34 8 -25.68 8 -25 8 C-25 7.34 -25 6.68 -25 6 C-16.56247415 2.66469566 -8.93824669 2.67822312 0 3 C0 2.01 0 1.02 0 0 Z " fill="#DFE29E" transform="translate(84,198)"/>
<path d="M0 0 C0.99 0.66 1.98 1.32 3 2 C3 2.99 3 3.98 3 5 C2.34 5 1.68 5 1 5 C1 6.32 1 7.64 1 9 C0.34 9 -0.32 9 -1 9 C-1 10.32 -1 11.64 -1 13 C-1.66 13 -2.32 13 -3 13 C-3 14.32 -3 15.64 -3 17 C-3.66 17 -4.32 17 -5 17 C-5 19.64 -5 22.28 -5 25 C-5.66 25 -6.32 25 -7 25 C-7 27.64 -7 30.28 -7 33 C-7.66 33 -8.32 33 -9 33 C-8.85962479 31.18706911 -8.71255111 29.3746557 -8.5625 27.5625 C-8.48128906 26.55316406 -8.40007812 25.54382813 -8.31640625 24.50390625 C-8 22 -8 22 -7 21 C-6.63239269 18.67182036 -6.29758419 16.3381615 -6 14 C-5.34 14 -4.68 14 -4 14 C-4.04125 13.071875 -4.0825 12.14375 -4.125 11.1875 C-4 8 -4 8 -2 5 C-1.34 5 -0.68 5 0 5 C0 3.35 0 1.7 0 0 Z " fill="#D1DFA5" transform="translate(91,121)"/>
<path d="M0 0 C3.96 0 7.92 0 12 0 C12 0.66 12 1.32 12 2 C13.98 2 15.96 2 18 2 C18 2.66 18 3.32 18 4 C18.66 4 19.32 4 20 4 C20 4.66 20 5.32 20 6 C19.05125 5.835 18.1025 5.67 17.125 5.5 C13.14563267 4.91527664 9.24822519 4.96277701 5.234375 5.0625 C3 5 3 5 0 4 C0 2.68 0 1.36 0 0 Z " fill="#68B5B5" transform="translate(264,240)"/>
<path d="M0 0 C0.66 0 1.32 0 2 0 C2 8.58 2 17.16 2 26 C1.34 26 0.68 26 0 26 C0 27.32 0 28.64 0 30 C-1.32 30 -2.64 30 -4 30 C-4 30.66 -4 31.32 -4 32 C-4.66 32 -5.32 32 -6 32 C-6 32.66 -6 33.32 -6 34 C-6.66 34 -7.32 34 -8 34 C-7.67 32.35 -7.34 30.7 -7 29 C-6.34 29 -5.68 29 -5 29 C-5 28.34 -5 27.68 -5 27 C-4.01 26.67 -3.02 26.34 -2 26 C0.0040121 20.10740812 0.25579801 14.67769044 0.125 8.5 C0.11597656 7.67757813 0.10695313 6.85515625 0.09765625 6.0078125 C0.07436865 4.00507917 0.03850959 2.00249846 0 0 Z " fill="#75B7B8" transform="translate(288,254)"/>
<path d="M0 0 C0.66 0 1.32 0 2 0 C2 7.92 2 15.84 2 24 C0.68 24 -0.64 24 -2 24 C-2 23.34 -2 22.68 -2 22 C-3.98 22 -5.96 22 -8 22 C-8 21.34 -8 20.68 -8 20 C-8.66 19.67 -9.32 19.34 -10 19 C-2.25 19.875 -2.25 19.875 0 21 C0 14.07 0 7.14 0 0 Z " fill="#BFDEDC" transform="translate(118,294)"/>
<path d="M0 0 C4.48516868 3.6589534 5.6980653 6.41631438 6.640625 12.109375 C6.81721297 14.00475432 6.81721297 14.00475432 8 15 C9.0988883 23.62830814 9.12789896 32.31708161 9 41 C8.67 41 8.34 41 8 41 C7.92483154 40.00818726 7.92483154 40.00818726 7.84814453 38.99633789 C7.61688822 36.01753638 7.37114392 33.04010665 7.125 30.0625 C7.04636719 29.02158203 6.96773438 27.98066406 6.88671875 26.90820312 C6.80292969 25.91884766 6.71914063 24.92949219 6.6328125 23.91015625 C6.55949707 22.99371338 6.48618164 22.07727051 6.41064453 21.13305664 C6.20737549 20.0771936 6.20737549 20.0771936 6 19 C5.34 18.67 4.68 18.34 4 18 C4 14.7 4 11.4 4 8 C3.34 8 2.68 8 2 8 C2 6.68 2 5.36 2 4 C1.34 4 0.68 4 0 4 C0 2.68 0 1.36 0 0 Z " fill="#52948F" transform="translate(258,130)"/>
<path d="M0 0 C0.33 0 0.66 0 1 0 C1 10.23 1 20.46 1 31 C-0.32 31.33 -1.64 31.66 -3 32 C-3 32.66 -3 33.32 -3 34 C-4.98 34 -6.96 34 -9 34 C-9 34.66 -9 35.32 -9 36 C-10.98 36 -12.96 36 -15 36 C-12 34 -12 34 -10 34 C-10 33.34 -10 32.68 -10 32 C-9.0925 31.71125 -8.185 31.4225 -7.25 31.125 C-4.66901709 30.23158284 -2.41157674 29.24772883 0 28 C-0.08378906 27.06800781 -0.16757813 26.13601563 -0.25390625 25.17578125 C-0.93551404 16.64274192 -0.93610111 8.54012242 0 0 Z " fill="#B7CD6D" transform="translate(215,288)"/>
<path d="M0 0 C0.66 0 1.32 0 2 0 C2 1.32 2 2.64 2 4 C1.34 4 0.68 4 0 4 C-0.33 5.98 -0.66 7.96 -1 10 C-0.34 10.33 0.32 10.66 1 11 C0.278125 11.391875 -0.44375 11.78375 -1.1875 12.1875 C-4.227326 14.14649898 -6.52127727 16.37963597 -9 19 C-9.33 18.01 -9.66 17.02 -10 16 C-9.34 16 -8.68 16 -8 16 C-8 14.68 -8 13.36 -8 12 C-7.34 12 -6.68 12 -6 12 C-6 10.68 -6 9.36 -6 8 C-5.34 8 -4.68 8 -4 8 C-4 7.34 -4 6.68 -4 6 C-3.34 6 -2.68 6 -2 6 C-2 4.68 -2 3.36 -2 2 C-1.34 2 -0.68 2 0 2 C0 1.34 0 0.68 0 0 Z " fill="#A2C761" transform="translate(34,80)"/>
<path d="M0 0 C3.3 0 6.6 0 10 0 C10 0.66 10 1.32 10 2 C11.98 2 13.96 2 16 2 C16 2.66 16 3.32 16 4 C17.32 4 18.64 4 20 4 C20 4.66 20 5.32 20 6 C21.32 6 22.64 6 24 6 C23.67 6.66 23.34 7.32 23 8 C19 6.66666667 15 5.33333333 11 4 C9.66474283 3.92026524 8.32587917 3.89228662 6.98828125 3.90234375 C6.23095703 3.90556641 5.47363281 3.90878906 4.69335938 3.91210938 C3.51483398 3.92467773 3.51483398 3.92467773 2.3125 3.9375 C1.51521484 3.94201172 0.71792969 3.94652344 -0.10351562 3.95117188 C-2.06904257 3.9629415 -4.03453085 3.98087652 -6 4 C-6 3.34 -6 2.68 -6 2 C-4.02 2 -2.04 2 0 2 C0 1.34 0 0.68 0 0 Z " fill="#D0DD9B" transform="translate(168,144)"/>
<path d="M0 0 C2.97 0.33 5.94 0.66 9 1 C9 1.33 9 1.66 9 2 C7.2984375 2.16435547 7.2984375 2.16435547 5.5625 2.33203125 C4.04160817 2.49163101 2.52077796 2.6518188 1 2.8125 C0.25621094 2.88275391 -0.48757812 2.95300781 -1.25390625 3.02539062 C-5.22063127 3.45655639 -8.65980762 4.13951843 -12.375 5.625 C-16 7 -16 7 -19 6.1875 C-19.66 5.795625 -20.32 5.40375 -21 5 C-21 5.66 -21 6.32 -21 7 C-23.97 7 -26.94 7 -30 7 C-30 6.67 -30 6.34 -30 6 C-27.36 6 -24.72 6 -22 6 C-22 5.34 -22 4.68 -22 4 C-19.36 4 -16.72 4 -14 4 C-14 3.34 -14 2.68 -14 2 C-9.38 2 -4.76 2 0 2 C0 1.34 0 0.68 0 0 Z " fill="#80BBB4" transform="translate(152,10)"/>
<path d="M0 0 C2 1 2 1 3.21875 4.16796875 C3.6534371 5.50536494 4.08018413 6.84536138 4.5 8.1875 C4.71269531 8.84814453 4.92539062 9.50878906 5.14453125 10.18945312 C5.56642298 11.50042345 5.98460437 12.81259406 6.39892578 14.12597656 C6.95579333 15.86217288 7.55054518 17.58609443 8.1484375 19.30859375 C9.0112022 22.03540512 9.16702869 24.16051233 9 27 C8.67 25.68 8.34 24.36 8 23 C7.34 23 6.68 23 6 23 C6 21.68 6 20.36 6 19 C5.34 19 4.68 19 4 19 C4 17.02 4 15.04 4 13 C3.34 13 2.68 13 2 13 C2 11.02 2 9.04 2 7 C1.34 7 0.68 7 0 7 C0 4.69 0 2.38 0 0 Z " fill="#D8DB86" transform="translate(12,205)"/>
<path d="M0 0 C0 0.66 0 1.32 0 2 C4.62 2 9.24 2 14 2 C14 2.66 14 3.32 14 4 C16.64 4 19.28 4 22 4 C22 4.66 22 5.32 22 6 C11.41745916 5.5590608 1.35912908 4.16439096 -9 2 C-9 1.67 -9 1.34 -9 1 C-5.846632 0.29925156 -3.27275026 0 0 0 Z " fill="#88CAC7" transform="translate(194,10)"/>
<path d="M0 0 C0.66 0 1.32 0 2 0 C2 7.26 2 14.52 2 22 C1.34 22 0.68 22 0 22 C0 20.68 0 19.36 0 18 C-0.66 18 -1.32 18 -2 18 C-2 13.38 -2 8.76 -2 4 C-1.34 4 -0.68 4 0 4 C0 2.68 0 1.36 0 0 Z " fill="#82BEC4" transform="translate(98,190)"/>
<path d="M0 0 C0.99 0.33 1.98 0.66 3 1 C3 2.32 3 3.64 3 5 C7.62 5.66 12.24 6.32 17 7 C17 7.66 17 8.32 17 9 C16.401875 9.103125 15.80375 9.20625 15.1875 9.3125 C12.71756736 10.08876455 11.67748765 11.07088921 10 13 C9.01 12.67 8.02 12.34 7 12 C6.3125 9.9375 6.3125 9.9375 6 8 C5.34 8 4.68 8 4 8 C4 7.34 4 6.68 4 6 C3.34 6 2.68 6 2 6 C2 4.68 2 3.36 2 2 C1.34 2 0.68 2 0 2 C0 1.34 0 0.68 0 0 Z " fill="#3C9791" transform="translate(252,120)"/>
<path d="M0 0 C1.32 0.33 2.64 0.66 4 1 C3.01 1.495 3.01 1.495 2 2 C1.34 1.34 0.68 0.68 0 0 Z M-3 3 C-1.68 3.33 -0.36 3.66 1 4 C-0.65 7.3 -2.3 10.6 -4 14 C-5.32 13.67 -6.64 13.34 -8 13 C-7.67 11.02 -7.34 9.04 -7 7 C-6.34 7 -5.68 7 -5 7 C-4.34 5.68 -3.68 4.36 -3 3 Z " fill="#12908F" transform="translate(71,209)"/>
<path d="M0 0 C0.66 0 1.32 0 2 0 C2 0.66 2 1.32 2 2 C3.98 2 5.96 2 8 2 C8 3.32 8 4.64 8 6 C7.34 6 6.68 6 6 6 C6 6.66 6 7.32 6 8 C5.34 8 4.68 8 4 8 C4 9.32 4 10.64 4 12 C3.34 12 2.68 12 2 12 C2.33 9.69 2.66 7.38 3 5 C3.99 5 4.98 5 6 5 C6 4.34 6 3.68 6 3 C5.3709375 3.08378906 4.741875 3.16757813 4.09375 3.25390625 C-1.5314382 3.9231681 -6.41233867 3.93127689 -12 3 C-12 2.67 -12 2.34 -12 2 C-8.04 2 -4.08 2 0 2 C0 1.34 0 0.68 0 0 Z " fill="#9ACDCE" transform="translate(118,228)"/>
<path d="M0 0 C1.32 0 2.64 0 4 0 C4 0.66 4 1.32 4 2 C9.94 1.67 15.88 1.34 22 1 C22 1.66 22 2.32 22 3 C20.68 3 19.36 3 18 3 C18 3.66 18 4.32 18 5 C14.04 5 10.08 5 6 5 C6 4.34 6 3.68 6 3 C4.68 3 3.36 3 2 3 C2 2.34 2 1.68 2 1 C1.34 0.67 0.68 0.34 0 0 Z " fill="#9DCACD" transform="translate(104,217)"/>
<path d="M0 0 C0 0.66 0 1.32 0 2 C-0.66 2 -1.32 2 -2 2 C-2 2.66 -2 3.32 -2 4 C-2.66 4 -3.32 4 -4 4 C-4 4.66 -4 5.32 -4 6 C-4.66 6 -5.32 6 -6 6 C-6 7.32 -6 8.64 -6 10 C-6.66 10 -7.32 10 -8 10 C-8 10.66 -8 11.32 -8 12 C-8.66 12 -9.32 12 -10 12 C-10.5212766 6.78723404 -10.5212766 6.78723404 -10 4 C-6.446955 0.76995909 -4.83406485 0 0 0 Z " fill="#7EB796" transform="translate(104,110)"/>
<path d="M0 0 C0.33 0.66 0.66 1.32 1 2 C1.639375 2.268125 2.27875 2.53625 2.9375 2.8125 C5.68332407 4.39342901 5.88952834 6.11277368 7 9 C7.99 9.33 8.98 9.66 10 10 C10 10.66 10 11.32 10 12 C10.78375 12.268125 11.5675 12.53625 12.375 12.8125 C15 14 15 14 17 17 C16.01 17 15.02 17 14 17 C14 16.34 14 15.68 14 15 C12.68 15 11.36 15 10 15 C10 14.34 10 13.68 10 13 C9.34 13 8.68 13 8 13 C8 12.34 8 11.68 8 11 C7.34 11 6.68 11 6 11 C6 10.34 6 9.68 6 9 C5.34 9 4.68 9 4 9 C4 8.34 4 7.68 4 7 C3.34 7 2.68 7 2 7 C2 5.68 2 4.36 2 3 C1.34 3 0.68 3 0 3 C0 2.01 0 1.02 0 0 Z " fill="#C7CE91" transform="translate(146,183)"/>
<path d="M0 0 C0.33 1.32 0.66 2.64 1 4 C1.66 4 2.32 4 3 4 C3 9.28 3 14.56 3 20 C2.34 20 1.68 20 1 20 C1 21.32 1 22.64 1 24 C0.34 23.67 -0.32 23.34 -1 23 C-0.83628906 22.01902344 -0.67257813 21.03804687 -0.50390625 20.02734375 C0.09159852 15.85881034 0.11249575 11.76598864 0.0625 7.5625 C0.05798828 6.83095703 0.05347656 6.09941406 0.04882812 5.34570312 C0.03718148 3.56376581 0.01925191 1.78187137 0 0 Z " fill="#D0DDA0" transform="translate(199,162)"/>
<path d="M0 0 C0.66 0 1.32 0 2 0 C2 1.98 2 3.96 2 6 C2.66 6 3.32 6 4 6 C4 7.98 4 9.96 4 12 C4.66 12 5.32 12 6 12 C6 14.64 6 17.28 6 20 C6.66 20 7.32 20 8 20 C8 22.64 8 25.28 8 28 C7.67 28 7.34 28 7 28 C6.67 26.02 6.34 24.04 6 22 C5.34 22 4.68 22 4 22 C3.80083984 20.60974609 3.80083984 20.60974609 3.59765625 19.19140625 C3.42105469 17.99386719 3.24445313 16.79632813 3.0625 15.5625 C2.88847656 14.36753906 2.71445312 13.17257813 2.53515625 11.94140625 C2.31014787 9.12044324 2.31014787 9.12044324 1 8 C0.54540142 5.34536879 0.29756762 2.67810862 0 0 Z " fill="#9AC3C6" transform="translate(328,114)"/>
<path d="M0 0 C2.64 0 5.28 0 8 0 C8 0.66 8 1.32 8 2 C11.3 2 14.6 2 18 2 C18 2.66 18 3.32 18 4 C12.06 3.67 6.12 3.34 0 3 C0 3.99 0 4.98 0 6 C-0.66 6 -1.32 6 -2 6 C-2 5.34 -2 4.68 -2 4 C-2.66 4 -3.32 4 -4 4 C-4 3.34 -4 2.68 -4 2 C-2.68 2 -1.36 2 0 2 C0 1.34 0 0.68 0 0 Z " fill="#AED6D8" transform="translate(222,228)"/>
<path d="M0 0 C0.99 0 1.98 0 3 0 C2.67 0.66 2.34 1.32 2 2 C-0.0625 2.625 -0.0625 2.625 -2 3 C-2 3.66 -2 4.32 -2 5 C-2.66 5 -3.32 5 -4 5 C-4.8441938 8.97977076 -5.44687265 12.97007218 -6 17 C-6.66 17 -7.32 17 -8 17 C-8 12.71 -8 8.42 -8 4 C-7.34 4 -6.68 4 -6 4 C-6 3.34 -6 2.68 -6 2 C-4.02 2 -2.04 2 0 2 C0 1.34 0 0.68 0 0 Z " fill="#66A96C" transform="translate(102,24)"/>
<path d="M0 0 C1.66666667 0 3.33333333 0 5 0 C5.33730842 1.43657245 5.66969591 2.87430093 6 4.3125 C6.185625 5.11300781 6.37125 5.91351563 6.5625 6.73828125 C7 9 7 9 7 12 C6.34 12 5.68 12 5 12 C5 11.34 5 10.68 5 10 C4.34 10 3.68 10 3 10 C3 8.68 3 7.36 3 6 C2.34 6 1.68 6 1 6 C1 5.34 1 4.68 1 4 C0.34 4 -0.32 4 -1 4 C-0.67 2.68 -0.34 1.36 0 0 Z " fill="#4CA2A8" transform="translate(245,108)"/>
<path d="M0 0 C0.66 0 1.32 0 2 0 C2 0.66 2 1.32 2 2 C3.98 2 5.96 2 8 2 C8 2.66 8 3.32 8 4 C5.03 4 2.06 4 -1 4 C-1.33 4.66 -1.66 5.32 -2 6 C-3.66666667 6.66666667 -5.33333333 7.33333333 -7 8 C-7.33 8.66 -7.66 9.32 -8 10 C-8.66 10 -9.32 10 -10 10 C-10 8.68 -10 7.36 -10 6 C-9.34 6 -8.68 6 -8 6 C-8 5.34 -8 4.68 -8 4 C-6.68 4 -5.36 4 -4 4 C-4 3.34 -4 2.68 -4 2 C-2.68 2 -1.36 2 0 2 C0 1.34 0 0.68 0 0 Z " fill="#60AAAD" transform="translate(74,206)"/>
<path d="M0 0 C0.33 0 0.66 0 1 0 C1 4.62 1 9.24 1 14 C-0.32 14 -1.64 14 -3 14 C-3 10.7 -3 7.4 -3 4 C-2.34 3.67 -1.68 3.34 -1 3 C-0.67 2.01 -0.34 1.02 0 0 Z " fill="#0C9596" transform="translate(257,287)"/>
<path d="M0 0 C0.99 0 1.98 0 3 0 C2.67 5.28 2.34 10.56 2 16 C1.34 16 0.68 16 0 16 C-1.32791716 10.68833136 -1.74706142 5.24118425 0 0 Z " fill="#D7DC5D" transform="translate(52,212)"/>
<path d="M0 0 C1.65 0 3.3 0 5 0 C5 0.66 5 1.32 5 2 C3.68 2 2.36 2 1 2 C1 2.66 1 3.32 1 4 C0.34 4 -0.32 4 -1 4 C-1 4.66 -1 5.32 -1 6 C-1.66 6 -2.32 6 -3 6 C-3 6.66 -3 7.32 -3 8 C-3.66 8 -4.32 8 -5 8 C-5 8.66 -5 9.32 -5 10 C-5.66 10 -6.32 10 -7 10 C-7 10.66 -7 11.32 -7 12 C-7.66 11.67 -8.32 11.34 -9 11 C-9 9.68 -9 8.36 -9 7 C-8.01 7 -7.02 7 -6 7 C-5.731875 6.360625 -5.46375 5.72125 -5.1875 5.0625 C-4 3 -4 3 -1 2 C-0.67 1.34 -0.34 0.68 0 0 Z " fill="#9CC1A8" transform="translate(117,94)"/>
<path d="M0 0 C0.33 0 0.66 0 1 0 C1 9.24 1 18.48 1 28 C2.32 28 3.64 28 5 28 C5 28.66 5 29.32 5 30 C3.35 30.33 1.7 30.66 0 31 C0 20.77 0 10.54 0 0 Z " fill="#33858A" transform="translate(269,264)"/>
<path d="M0 0 C0.66 0 1.32 0 2 0 C3.34106405 2.6821281 3.21450419 4.88398032 3.31640625 7.8828125 C3.35830078 9.04941406 3.40019531 10.21601563 3.44335938 11.41796875 C3.48267578 12.64128906 3.52199219 13.86460937 3.5625 15.125 C3.60568359 16.35605469 3.64886719 17.58710938 3.69335938 18.85546875 C3.79968704 21.90352853 3.90171781 24.9516719 4 28 C3.34 28 2.68 28 2 28 C2 20.74 2 13.48 2 6 C1.34 6 0.68 6 0 6 C0 4.02 0 2.04 0 0 Z " fill="#E9EBB4" transform="translate(6,168)"/>
<path d="M0 0 C0.66 0.33 1.32 0.66 2 1 C0.625 3.5 0.625 3.5 -1 6 C-1.66 6 -2.32 6 -3 6 C-3.28875 6.639375 -3.5775 7.27875 -3.875 7.9375 C-5 10 -5 10 -7 11 C-7.33 9.35 -7.66 7.7 -8 6 C-7.34 6 -6.68 6 -6 6 C-6 5.34 -6 4.68 -6 4 C-5.34 4 -4.68 4 -4 4 C-4 3.34 -4 2.68 -4 2 C-2.68 2 -1.36 2 0 2 C0 1.34 0 0.68 0 0 Z " fill="#B3C96F" transform="translate(158,148)"/>
<path d="M0 0 C2.64 0 5.28 0 8 0 C8 0.66 8 1.32 8 2 C9.98 2 11.96 2 14 2 C13.67 2.99 13.34 3.98 13 5 C12.30519531 4.83628906 11.61039062 4.67257813 10.89453125 4.50390625 C7.7647184 3.95904004 4.86201917 3.90261517 1.6875 3.9375 C0.08455078 3.95103516 0.08455078 3.95103516 -1.55078125 3.96484375 C-2.35902344 3.97644531 -3.16726563 3.98804688 -4 4 C-4 3.34 -4 2.68 -4 2 C-2.68 2 -1.36 2 0 2 C0 1.34 0 0.68 0 0 Z " fill="#8ECBC8" transform="translate(264,208)"/>
<path d="M0 0 C0.33 0.99 0.66 1.98 1 3 C1.99 3 2.98 3 4 3 C4 4.32 4 5.64 4 7 C5.32 7.33 6.64 7.66 8 8 C8 8.99 8 9.98 8 11 C7.34 11 6.68 11 6 11 C6 11.66 6 12.32 6 13 C5.34 13 4.68 13 4 13 C4 11.68 4 10.36 4 9 C3.34 9 2.68 9 2 9 C2 7.68 2 6.36 2 5 C1.34 5 0.68 5 0 5 C0 3.35 0 1.7 0 0 Z " fill="#B2CAC2" transform="translate(300,251)"/>
<path d="M0 0 C0.33 0.99 0.66 1.98 1 3 C0.34 3 -0.32 3 -1 3 C-1 3.66 -1 4.32 -1 5 C-1.66 5 -2.32 5 -3 5 C-3 5.66 -3 6.32 -3 7 C-3.66 7 -4.32 7 -5 7 C-5 7.66 -5 8.32 -5 9 C-5.66 9 -6.32 9 -7 9 C-7 9.66 -7 10.32 -7 11 C-8.32 11 -9.64 11 -11 11 C-11 10.01 -11 9.02 -11 8 C-10.4225 7.7525 -9.845 7.505 -9.25 7.25 C-6.86733113 6.0681388 -6.86733113 6.0681388 -4.9375 3.875 C-3 2 -3 2 0 2 C0 1.34 0 0.68 0 0 Z " fill="#CAD685" transform="translate(197,187)"/>
<path d="M0 0 C0.99 0.66 1.98 1.32 3 2 C3 2.99 3 3.98 3 5 C2.34 5 1.68 5 1 5 C1 6.32 1 7.64 1 9 C0.34 9 -0.32 9 -1 9 C-1 10.32 -1 11.64 -1 13 C-1.99 13.33 -2.98 13.66 -4 14 C-4.25 8.375 -4.25 8.375 -2 5 C-1.34 5 -0.68 5 0 5 C0 3.35 0 1.7 0 0 Z " fill="#C0D68A" transform="translate(91,121)"/>
<path d="M0 0 C0 0.66 0 1.32 0 2 C-0.66 2 -1.32 2 -2 2 C-2 3.32 -2 4.64 -2 6 C-2.66 6 -3.32 6 -4 6 C-4 6.66 -4 7.32 -4 8 C-4.66 8 -5.32 8 -6 8 C-6 9.32 -6 10.64 -6 12 C-6.66 11.67 -7.32 11.34 -8 11 C-7.34 7.7 -6.68 4.4 -6 1 C-3 0 -3 0 0 0 Z " fill="#CFD844" transform="translate(50,242)"/>
<path d="M0 0 C-2.90092502 1.93395001 -3.89674737 2.30131941 -7.1875 2.625 C-8.445625 2.74875 -9.70375 2.8725 -11 3 C-11.33 3.99 -11.66 4.98 -12 6 C-13.98 6 -15.96 6 -18 6 C-17.34 5.67 -16.68 5.34 -16 5 C-16 4.34 -16 3.68 -16 3 C-14.68 3 -13.36 3 -12 3 C-12 2.34 -12 1.68 -12 1 C-8.0186217 -0.3271261 -4.14954773 -0.06915913 0 0 Z " fill="#318E90" transform="translate(114,231)"/>
<path d="M0 0 C0.33 0 0.66 0 1 0 C1 3.96 1 7.92 1 12 C0.34 12 -0.32 12 -1 12 C-1 13.32 -1 14.64 -1 16 C-1.66 16 -2.32 16 -3 16 C-3 16.66 -3 17.32 -3 18 C-3.66 18 -4.32 18 -5 18 C-5 17.01 -5 16.02 -5 15 C-4.34 15 -3.68 15 -3 15 C-2.67 12.36 -2.34 9.72 -2 7 C-1.34 7 -0.68 7 0 7 C0 4.69 0 2.38 0 0 Z " fill="#8FC3C4" transform="translate(135,196)"/>
<path d="M0 0 C1.32 0.33 2.64 0.66 4 1 C3.01 1 2.02 1 1 1 C1 1.66 1 2.32 1 3 C0.01 3 -0.98 3 -2 3 C-2.4021875 3.8353125 -2.4021875 3.8353125 -2.8125 4.6875 C-6.47826087 11.82608696 -6.47826087 11.82608696 -10 13 C-10 12.01 -10 11.02 -10 10 C-9.34 10 -8.68 10 -8 10 C-8 8.68 -8 7.36 -8 6 C-7.34 6 -6.68 6 -6 6 C-6 5.34 -6 4.68 -6 4 C-5.34 4 -4.68 4 -4 4 C-4 3.34 -4 2.68 -4 2 C-2.68 2 -1.36 2 0 2 C0 1.34 0 0.68 0 0 Z " fill="#7EB7BC" transform="translate(218,184)"/>
<path d="M0 0 C3.3 0 6.6 0 10 0 C10.33 0.66 10.66 1.32 11 2 C13.52733235 2.65555119 13.52733235 2.65555119 16 3 C16 3.66 16 4.32 16 5 C16.66 5.33 17.32 5.66 18 6 C16.68 6 15.36 6 14 6 C14 5.34 14 4.68 14 4 C12.02 4 10.04 4 8 4 C8 3.34 8 2.68 8 2 C5.36 2 2.72 2 0 2 C0 1.34 0 0.68 0 0 Z " fill="#7BB8C2" transform="translate(196,82)"/>
<path d="M0 0 C0.33 0.66 0.66 1.32 1 2 C1.66 2 2.32 2 3 2 C3 2.66 3 3.32 3 4 C3.66 4 4.32 4 5 4 C5 4.66 5 5.32 5 6 C5.66 6 6.32 6 7 6 C7 7.32 7 8.64 7 10 C7.66 10 8.32 10 9 10 C9 10.66 9 11.32 9 12 C9.66 12 10.32 12 11 12 C10.67 13.32 10.34 14.64 10 16 C7.74754119 13.31158141 6.11786042 11.35358125 5 8 C4.01 7.34 3.02 6.68 2 6 C2 5.01 2 4.02 2 3 C1.01 2.67 0.02 2.34 -1 2 C-0.67 1.34 -0.34 0.68 0 0 Z " fill="#75A2A8" transform="translate(301,68)"/>
<path d="M0 0 C1.32 0 2.64 0 4 0 C4 0.99 4 1.98 4 3 C2.71086513 3.67154933 1.41859796 4.33708859 0.125 5 C-0.59429687 5.37125 -1.31359375 5.7425 -2.0546875 6.125 C-4 7 -4 7 -6 7 C-6 6.01 -6 5.02 -6 4 C-5.34 4 -4.68 4 -4 4 C-4 3.34 -4 2.68 -4 2 C-2.68 2 -1.36 2 0 2 C0 1.34 0 0.68 0 0 Z " fill="#AEC362" transform="translate(150,214)"/>
<path d="M0 0 C0.66 0 1.32 0 2 0 C1.7834375 0.99966797 1.7834375 0.99966797 1.5625 2.01953125 C0.20300177 8.76981758 -0.23942141 15.12328495 0 22 C-0.66 22 -1.32 22 -2 22 C-2 16.72 -2 11.44 -2 6 C-1.34 6 -0.68 6 0 6 C0 4.02 0 2.04 0 0 Z " fill="#E9EBC6" transform="translate(146,160)"/>
<path d="M0 0 C0.66 0.99 1.32 1.98 2 3 C1.34 3.66 0.68 4.32 0 5 C-0.103125 5.804375 -0.20625 6.60875 -0.3125 7.4375 C-1 10 -1 10 -3.5625 11.8125 C-4.366875 12.204375 -5.17125 12.59625 -6 13 C-6 12.01 -6 11.02 -6 10 C-5.34 10 -4.68 10 -4 10 C-4 8.68 -4 7.36 -4 6 C-3.34 6 -2.68 6 -2 6 C-2 4.68 -2 3.36 -2 2 C-1.34 2 -0.68 2 0 2 C0 1.34 0 0.68 0 0 Z " fill="#C8D98B" transform="translate(30,86)"/>
<path d="M0 0 C5.44693314 -0.09688221 10.63904667 -0.12862175 16 1 C16 1.66 16 2.32 16 3 C17.32 3 18.64 3 20 3 C19.67 3.66 19.34 4.32 19 5 C15.7 4.34 12.4 3.68 9 3 C9 2.34 9 1.68 9 1 C6.03 1 3.06 1 0 1 C0 0.67 0 0.34 0 0 Z " fill="#49A2A4" transform="translate(228,231)"/>
<path d="M0 0 C0.99 0.33 1.98 0.66 3 1 C2.34 2.32 1.68 3.64 1 5 C0.01 5 -0.98 5 -2 5 C-2 5.66 -2 6.32 -2 7 C-3.32 7 -4.64 7 -6 7 C-6.33 6.01 -6.66 5.02 -7 4 C-4 2 -4 2 -1 2 C-0.67 1.34 -0.34 0.68 0 0 Z " fill="#0B8F91" transform="translate(274,225)"/>
<path d="M0 0 C2.37909647 1.64706678 3.53772519 2.54996339 5 5 C5.74395174 9.32749391 5.92936367 13.6141261 6 18 C5.34 18 4.68 18 4 18 C4 14.7 4 11.4 4 8 C3.34 8 2.68 8 2 8 C2 6.68 2 5.36 2 4 C1.34 4 0.68 4 0 4 C0 2.68 0 1.36 0 0 Z " fill="#B6D4D2" transform="translate(258,130)"/>
<path d="M0 0 C0.66 0 1.32 0 2 0 C2 0.99 2 1.98 2 3 C0.68 3 -0.64 3 -2 3 C-2.33 4.65 -2.66 6.3 -3 8 C-5.31 8.66 -7.62 9.32 -10 10 C-10 9.34 -10 8.68 -10 8 C-9.34 8 -8.68 8 -8 8 C-8 7.34 -8 6.68 -8 6 C-6.68 6 -5.36 6 -4 6 C-4 4.68 -4 3.36 -4 2 C-2.68 2 -1.36 2 0 2 C0 1.34 0 0.68 0 0 Z " fill="#B0CD8B" transform="translate(64,48)"/>
<path d="M0 0 C0.66 0.33 1.32 0.66 2 1 C1.67 2.65 1.34 4.3 1 6 C0.34 6 -0.32 6 -1 6 C-0.65772428 8.97065509 -0.65772428 8.97065509 0 12 C0.66 12.33 1.32 12.66 2 13 C2 14.65 2 16.3 2 18 C1.34 18 0.68 18 0 18 C0 16.68 0 15.36 0 14 C-0.66 14 -1.32 14 -2 14 C-2 10.7 -2 7.4 -2 4 C-1.34 4 -0.68 4 0 4 C0 2.68 0 1.36 0 0 Z " fill="#9BCED3" transform="translate(258,212)"/>
<path d="M0 0 C1.32 0.33 2.64 0.66 4 1 C4 4.3 4 7.6 4 11 C3.01 10.67 2.02 10.34 1 10 C0.67 6.7 0.34 3.4 0 0 Z " fill="#6FB3B4" transform="translate(278,215)"/>
<path d="M0 0 C3.37462715 0.54723683 5.08235 1.0549 8 3 C8.1875 5.625 8.1875 5.625 8 8 C7.34 8 6.68 8 6 8 C6 7.34 6 6.68 6 6 C5.34 6 4.68 6 4 6 C4 5.34 4 4.68 4 4 C3.34 4 2.68 4 2 4 C2 3.34 2 2.68 2 2 C1.34 2 0.68 2 0 2 C0 1.34 0 0.68 0 0 Z " fill="#4799A3" transform="translate(236,102)"/>
<path d="M0 0 C0.33 0.66 0.66 1.32 1 2 C-0.32 2 -1.64 2 -3 2 C-3 2.66 -3 3.32 -3 4 C-4.32 4 -5.64 4 -7 4 C-7 4.66 -7 5.32 -7 6 C-8.32 6 -9.64 6 -11 6 C-10.67 4.68 -10.34 3.36 -10 2 C-6.7 1.34 -3.4 0.68 0 0 Z " fill="#71AFB2" transform="translate(255,304)"/>
<path d="M0 0 C0.33 0.66 0.66 1.32 1 2 C-0.32 2 -1.64 2 -3 2 C-3 2.66 -3 3.32 -3 4 C-8.94 4 -14.88 4 -21 4 C-21 3.67 -21 3.34 -21 3 C-20.154375 2.95101562 -19.30875 2.90203125 -18.4375 2.8515625 C-12.05290815 2.43075986 -6.14207405 1.80649237 0 0 Z " fill="#D5DDA1" transform="translate(185,198)"/>
<path d="M0 0 C0.66 0.33 1.32 0.66 2 1 C1.67 1.66 1.34 2.32 1 3 C0.34 3 -0.32 3 -1 3 C-1 3.99 -1 4.98 -1 6 C-1.99 6.33 -2.98 6.66 -4 7 C-4.33 7.66 -4.66 8.32 -5 9 C-5.99 8.67 -6.98 8.34 -8 8 C-8 7.34 -8 6.68 -8 6 C-7.34 6 -6.68 6 -6 6 C-6 5.34 -6 4.68 -6 4 C-5.34 4 -4.68 4 -4 4 C-4 3.34 -4 2.68 -4 2 C-2.68 2 -1.36 2 0 2 C0 1.34 0 0.68 0 0 Z " fill="#A8C882" transform="translate(74,40)"/>
<path d="M0 0 C3 1 3 1 4 3 C-5.41002278 6.62870159 -5.41002278 6.62870159 -10 5 C-8.68 4.67 -7.36 4.34 -6 4 C-6 3.34 -6 2.68 -6 2 C-4.02 2 -2.04 2 0 2 C0 1.34 0 0.68 0 0 Z " fill="#90BEB3" transform="translate(116,18)"/>
<path d="M0 0 C2.64 0 5.28 0 8 0 C8.33 0.66 8.66 1.32 9 2 C7.02 2.33 5.04 2.66 3 3 C2.67 3.99 2.34 4.98 2 6 C0 3 0 3 0 0 Z " fill="#069792" transform="translate(269,244)"/>
<path d="M0 0 C2 1 2 1 3.125 3.125 C4.15945114 6.52391089 4.1385722 9.46640886 4 13 C3.34 13 2.68 13 2 13 C2 11.02 2 9.04 2 7 C1.34 7 0.68 7 0 7 C0 4.69 0 2.38 0 0 Z " fill="#DDE08D" transform="translate(12,205)"/>
<path d="M0 0 C0 0.99 0 1.98 0 3 C-4.62 3 -9.24 3 -14 3 C-9.56270856 0.04180571 -5.24640913 -0.15430615 0 0 Z " fill="#9BBA48" transform="translate(84,198)"/>
<path d="M0 0 C0.66 0.33 1.32 0.66 2 1 C2 3.64 2 6.28 2 9 C1.34 9 0.68 9 0 9 C0 10.98 0 12.96 0 15 C-0.33 15 -0.66 15 -1 15 C-1.02703381 13.06257659 -1.04641125 11.12504521 -1.0625 9.1875 C-1.07410156 8.10855469 -1.08570312 7.02960938 -1.09765625 5.91796875 C-1 3 -1 3 0 0 Z " fill="#19989A" transform="translate(100,192)"/>
<path d="M0 0 C1.32 0 2.64 0 4 0 C4 0.66 4 1.32 4 2 C5.32 1.34 6.64 0.68 8 0 C8 0.99 8 1.98 8 3 C7.34 3 6.68 3 6 3 C6 4.32 6 5.64 6 7 C5.34 7 4.68 7 4 7 C4 6.34 4 5.68 4 5 C3.34 5 2.68 5 2 5 C2 3.68 2 2.36 2 1 C1.34 0.67 0.68 0.34 0 0 Z " fill="#EAEC8A" transform="translate(34,255)"/>
<path d="M0 0 C5.28 0 10.56 0 16 0 C16 0.66 16 1.32 16 2 C14.71416016 1.96519531 14.71416016 1.96519531 13.40234375 1.9296875 C7.19626131 1.83173355 1.8428778 1.82590593 -4 4 C-4 3.34 -4 2.68 -4 2 C-2.68 2 -1.36 2 0 2 C0 1.34 0 0.68 0 0 Z " fill="#98CFCF" transform="translate(108,182)"/>
<path d="M0 0 C2.64 0.33 5.28 0.66 8 1 C8 1.66 8 2.32 8 3 C5.36 3 2.72 3 0 3 C0 3.66 0 4.32 0 5 C-1.65 5 -3.3 5 -5 5 C-4.67 4.34 -4.34 3.68 -4 3 C-3.01 3 -2.02 3 -1 3 C-0.67 2.01 -0.34 1.02 0 0 Z " fill="#A3C5AD" transform="translate(142,81)"/>
<path d="M0 0 C0.66 0.33 1.32 0.66 2 1 C0.99382318 3.67576692 0.45785454 4.7785108 -2.1640625 6.046875 C-2.97617188 6.27890625 -3.78828125 6.5109375 -4.625 6.75 C-5.85089844 7.11351562 -5.85089844 7.11351562 -7.1015625 7.484375 C-8.04128906 7.73960938 -8.04128906 7.73960938 -9 8 C-9.33 7.34 -9.66 6.68 -10 6 C-8.68 6 -7.36 6 -6 6 C-6 5.34 -6 4.68 -6 4 C-5.34 4 -4.68 4 -4 4 C-4 3.34 -4 2.68 -4 2 C-2.68 2 -1.36 2 0 2 C0 1.34 0 0.68 0 0 Z " fill="#B0D08E" transform="translate(86,32)"/>
<path d="M0 0 C2.97 0.33 5.94 0.66 9 1 C9 1.33 9 1.66 9 2 C3.79826905 2.86809439 -1.16978816 3.12515348 -6.4375 3.0625 C-7.16904297 3.05798828 -7.90058594 3.05347656 -8.65429688 3.04882812 C-10.43623419 3.03718148 -12.21812863 3.01925191 -14 3 C-14 2.67 -14 2.34 -14 2 C-9.38 2 -4.76 2 0 2 C0 1.34 0 0.68 0 0 Z " fill="#B9E8DD" transform="translate(152,10)"/>
<path d="M0 0 C0.33 0 0.66 0 1 0 C1.28571429 8.57142857 1.28571429 8.57142857 -1 12 C-1.33 12 -1.66 12 -2 12 C-2 8.7 -2 5.4 -2 2 C-1.34 2 -0.68 2 0 2 C0 1.34 0 0.68 0 0 Z " fill="#3FA3A7" transform="translate(56,252)"/>
<path d="M0 0 C0.33 0 0.66 0 1 0 C2.43023178 4.67209049 3.40380045 9.13103697 4 14 C3.34 14 2.68 14 2 14 C0.02905192 9.07262981 -0.1799928 5.21979128 0 0 Z " fill="#A4BB5C" transform="translate(145,171)"/>
<path d="M0 0 C0.66 0 1.32 0 2 0 C2 2.64 2 5.28 2 8 C1.34 8 0.68 8 0 8 C0 9.32 0 10.64 0 12 C-0.66 11.67 -1.32 11.34 -2 11 C-1.34 7.37 -0.68 3.74 0 0 Z " fill="#EAEFA2" transform="translate(54,228)"/>
<path d="M0 0 C0.99 0 1.98 0 3 0 C3 0.66 3 1.32 3 2 C4.32 2 5.64 2 7 2 C7 2.66 7 3.32 7 4 C7.66 4 8.32 4 9 4 C8.67 4.66 8.34 5.32 8 6 C5.36 5.01 2.72 4.02 0 3 C0 2.01 0 1.02 0 0 Z " fill="#62A6B1" transform="translate(253,30)"/>
<path d="M0 0 C-1.71664683 2.07804617 -2.85081159 2.95027053 -5.4375 3.8125 C-8.31664378 4.02316906 -9.58978936 3.51754003 -12 2 C-7.8794254 0.00214565 -4.54805635 -0.17835515 0 0 Z " fill="#66A39D" transform="translate(129,17)"/>
<path d="M0 0 C0.99 0.33 1.98 0.66 3 1 C3 1.66 3 2.32 3 3 C3.78375 3.268125 4.5675 3.53625 5.375 3.8125 C8 5 8 5 10 8 C9.01 8 8.02 8 7 8 C7 7.34 7 6.68 7 6 C5.68 6 4.36 6 3 6 C3 5.34 3 4.68 3 4 C2.34 4 1.68 4 1 4 C0.67 2.68 0.34 1.36 0 0 Z " fill="#BBC983" transform="translate(153,192)"/>
<path d="M0 0 C0.66 0 1.32 0 2 0 C2 1.32 2 2.64 2 4 C2.66 4 3.32 4 4 4 C4 5.32 4 6.64 4 8 C4.66 8 5.32 8 6 8 C5.67 8.99 5.34 9.98 5 11 C4.34 11 3.68 11 3 11 C0.87953208 7.46588679 0.46800711 4.05606165 0 0 Z " fill="#96BBC1" transform="translate(318,92)"/>
<path d="M0 0 C0.66 0.33 1.32 0.66 2 1 C1.505 1.433125 1.01 1.86625 0.5 2.3125 C-1.33218192 3.99740483 -1.33218192 3.99740483 -1 7 C-3.64 7 -6.28 7 -9 7 C-6.62997587 4.38049964 -4.04546021 2.76316117 -1 1 C-0.67 0.67 -0.34 0.34 0 0 Z " fill="#1C8486" transform="translate(185,72)"/>
<path d="M0 0 C2.91517292 1.07401108 4.77810176 1.77810176 7 4 C7 4.66 7 5.32 7 6 C2.25 5.25 2.25 5.25 0 3 C0 2.01 0 1.02 0 0 Z " fill="#108C90" transform="translate(215,213)"/>
<path d="M0 0 C1.77155654 0.11429397 3.54226229 0.24183037 5.3125 0.375 C6.79169922 0.47941406 6.79169922 0.47941406 8.30078125 0.5859375 C11 1 11 1 14 3 C13 4 13 4 10.4375 4.0625 C9.2309375 4.0315625 9.2309375 4.0315625 8 4 C8 3.34 8 2.68 8 2 C5.36 2 2.72 2 0 2 C0 1.34 0 0.68 0 0 Z " fill="#B3D1CE" transform="translate(270,200)"/>
<path d="M0 0 C0.66 0 1.32 0 2 0 C3.17571451 3.67410785 3.07366746 7.16929183 3 11 C2.34 11 1.68 11 1 11 C0.67 7.37 0.34 3.74 0 0 Z " fill="#4A9497" transform="translate(132,192)"/>
<path d="M0 0 C2.31 0 4.62 0 7 0 C6.34 1.32 5.68 2.64 5 4 C2.69 4 0.38 4 -2 4 C-2 3.34 -2 2.68 -2 2 C-1.34 2 -0.68 2 0 2 C0 1.34 0 0.68 0 0 Z " fill="#40A3A9" transform="translate(102,186)"/>
<path d="M0 0 C1.32 0.66 2.64 1.32 4 2 C2.35 3.65 0.7 5.3 -1 7 C-1.33 5.35 -1.66 3.7 -2 2 C-1.34 2 -0.68 2 0 2 C0 1.34 0 0.68 0 0 Z " fill="#AACD7F" transform="translate(48,62)"/>
<path d="M0 0 C0.99 0 1.98 0 3 0 C3 0.66 3 1.32 3 2 C3.66 2 4.32 2 5 2 C5 2.66 5 3.32 5 4 C5.66 4 6.32 4 7 4 C7 4.66 7 5.32 7 6 C7.66 6.33 8.32 6.66 9 7 C7.68 7 6.36 7 5 7 C5 6.34 5 5.68 5 5 C4.360625 4.731875 3.72125 4.46375 3.0625 4.1875 C1 3 1 3 0 0 Z " fill="#C5D686" transform="translate(195,216)"/>
<path d="M0 0 C2.12046792 3.53411321 2.53199289 6.94393835 3 11 C2.34 11 1.68 11 1 11 C1 9.68 1 8.36 1 7 C0.34 7 -0.32 7 -1 7 C-1.04254356 5.00045254 -1.04080783 2.99958364 -1 1 C-0.67 0.67 -0.34 0.34 0 0 Z " fill="#88BEC7" transform="translate(209,205)"/>
<path d="M0 0 C2.97 0.33 5.94 0.66 9 1 C9 1.66 9 2.32 9 3 C10.32 3 11.64 3 13 3 C12.67 3.66 12.34 4.32 12 5 C10.56068883 4.54738642 9.12361001 4.08767021 7.6875 3.625 C6.88699219 3.36976563 6.08648437 3.11453125 5.26171875 2.8515625 C3 2 3 2 0 0 Z " fill="#C1D27F" transform="translate(179,147)"/>
<path d="M0 0 C1.32 0 2.64 0 4 0 C4 0.66 4 1.32 4 2 C5.32 2.33 6.64 2.66 8 3 C8 3.99 8 4.98 8 6 C7.34 6 6.68 6 6 6 C6 5.34 6 4.68 6 4 C4.68 4 3.36 4 2 4 C2 3.34 2 2.68 2 2 C1.34 2 0.68 2 0 2 C0 1.34 0 0.68 0 0 Z " fill="#59A5B0" transform="translate(228,96)"/>
<path d="M0 0 C2 1 2 1 2 1 Z M-6 2 C-4.35 2 -2.7 2 -1 2 C-3.88087546 4.40072955 -6.56404834 6.47291037 -10 8 C-10 7.34 -10 6.68 -10 6 C-9.34 6 -8.68 6 -8 6 C-7.34 4.68 -6.68 3.36 -6 2 Z " fill="#84BD4E" transform="translate(83,37)"/>
<path d="M0 0 C0.99 0 1.98 0 3 0 C2.67 0.66 2.34 1.32 2 2 C-0.0625 2.625 -0.0625 2.625 -2 3 C-2 3.66 -2 4.32 -2 5 C-3.875 5.625 -3.875 5.625 -6 6 C-6.66 5.34 -7.32 4.68 -8 4 C-7.34 4 -6.68 4 -6 4 C-6 3.34 -6 2.68 -6 2 C-4.02 2 -2.04 2 0 2 C0 1.34 0 0.68 0 0 Z " fill="#9CC2AC" transform="translate(102,24)"/>
<path d="M0 0 C1.32 0.33 2.64 0.66 4 1 C0.72698081 3.96909598 -1.38065762 4.34354794 -5.75 4.1875 C-7.22726563 4.14689453 -7.22726563 4.14689453 -8.734375 4.10546875 C-9.85585937 4.05326172 -9.85585937 4.05326172 -11 4 C-11 3.67 -11 3.34 -11 3 C-7.7 3 -4.4 3 -1 3 C-0.67 2.01 -0.34 1.02 0 0 Z " fill="#268888" transform="translate(81,227)"/>
<path d="M0 0 C1.65 0.33 3.3 0.66 5 1 C-0.14285714 5.42857143 -0.14285714 5.42857143 -4 6 C-4 5.34 -4 4.68 -4 4 C-3.34 4 -2.68 4 -2 4 C-2 3.34 -2 2.68 -2 2 C-1.34 2 -0.68 2 0 2 C0 1.34 0 0.68 0 0 Z " fill="#CAD39C" transform="translate(140,220)"/>
<path d="M0 0 C1.73745313 2.65728125 2.00831972 3.89600355 1.75 7.125 C1 10 1 10 -1 12 C-1.14285714 3.42857143 -1.14285714 3.42857143 0 0 Z " fill="#AAC656" transform="translate(148,158)"/>
<path d="M0 0 C-3 2 -3 2 -7 2 C-7.33 2.99 -7.66 3.98 -8 5 C-8.99 4.67 -9.98 4.34 -11 4 C-7.95841042 -0.56238437 -5.1474794 -0.11438843 0 0 Z " fill="#A6BF52" transform="translate(169,147)"/>
<path d="M0 0 C1.98 0 3.96 0 6 0 C6 0.66 6 1.32 6 2 C7.32 2 8.64 2 10 2 C9.67 2.66 9.34 3.32 9 4 C4.545 3.01 4.545 3.01 0 2 C0 1.34 0 0.68 0 0 Z " fill="#91CACD" transform="translate(230,20)"/>
<path d="M0 0 C0 0.66 0 1.32 0 2 C-3.63 2.33 -7.26 2.66 -11 3 C-6.86621405 0.2441427 -4.94796454 -0.10756445 0 0 Z " fill="#58997C" transform="translate(164,77)"/>
<path d="M0 0 C-1.09758507 0.84198307 -2.20335317 1.67330671 -3.3125 2.5 C-3.92738281 2.9640625 -4.54226563 3.428125 -5.17578125 3.90625 C-7 5 -7 5 -10 5 C-9 2 -9 2 -6.125 0.25 C-3 -1 -3 -1 0 0 Z " fill="#3C987F" transform="translate(294,198)"/>
<path d="M0 0 C1.98 0.66 3.96 1.32 6 2 C6 3.65 6 5.3 6 7 C5.01 6.67 4.02 6.34 3 6 C2.3125 3.9375 2.3125 3.9375 2 2 C1.34 2 0.68 2 0 2 C0 1.34 0 0.68 0 0 Z " fill="#4A9D95" transform="translate(256,126)"/>
<path d="M0 0 C2.64 0.33 5.28 0.66 8 1 C7.67 1.99 7.34 2.98 7 4 C7.66 4.33 8.32 4.66 9 5 C8.01 5 7.02 5 6 5 C6 4.34 6 3.68 6 3 C4.68 3 3.36 3 2 3 C2 2.34 2 1.68 2 1 C1.34 0.67 0.68 0.34 0 0 Z " fill="#9BC8CF" transform="translate(218,91)"/>
<path d="M0 0 C0.33 0 0.66 0 1 0 C1 1.98 1 3.96 1 6 C2.32 6 3.64 6 5 6 C5 6.66 5 7.32 5 8 C3.35 8.33 1.7 8.66 0 9 C0 6.03 0 3.06 0 0 Z " fill="#4F999B" transform="translate(269,286)"/>
<path d="M0 0 C0.33 0.99 0.66 1.98 1 3 C0.34 3 -0.32 3 -1 3 C-1 3.66 -1 4.32 -1 5 C-1.66 5 -2.32 5 -3 5 C-3 6.32 -3 7.64 -3 9 C-3.66 8.67 -4.32 8.34 -5 8 C-3.375 2.25 -3.375 2.25 0 0 Z " fill="#F0EFA7" transform="translate(47,245)"/>
<path d="M0 0 C0.99 0 1.98 0 3 0 C3 0.99 3 1.98 3 3 C2.34 3 1.68 3 1 3 C1 4.32 1 5.64 1 7 C0.34 7 -0.32 7 -1 7 C-0.67 4.69 -0.34 2.38 0 0 Z " fill="#76B0B7" transform="translate(121,233)"/>
<path d="M0 0 C0.66 0.33 1.32 0.66 2 1 C1.34 2.32 0.68 3.64 0 5 C-1.98 5 -3.96 5 -6 5 C-5.34 4.67 -4.68 4.34 -4 4 C-4 3.34 -4 2.68 -4 2 C-2.68 2 -1.36 2 0 2 C0 1.34 0 0.68 0 0 Z " fill="#5FA8AD" transform="translate(102,232)"/>
<path d="M0 0 C1.32 0 2.64 0 4 0 C4 0.99 4 1.98 4 3 C3.34 3 2.68 3 2 3 C2 3.66 2 4.32 2 5 C1.01 5 0.02 5 -1 5 C-0.67 3.35 -0.34 1.7 0 0 Z " fill="#74B7B7" transform="translate(276,227)"/>
<path d="M0 0 C2.31 0.33 4.62 0.66 7 1 C7 1.66 7 2.32 7 3 C7.99 3.33 8.98 3.66 10 4 C8.02 4 6.04 4 4 4 C4 3.34 4 2.68 4 2 C2.68 2 1.36 2 0 2 C0 1.34 0 0.68 0 0 Z " fill="#E4E5C6" transform="translate(132,320)"/>
<path d="M0 0 C1.32 0 2.64 0 4 0 C4 0.99 4 1.98 4 3 C3.01 3.33 2.02 3.66 1 4 C0.34 3.67 -0.32 3.34 -1 3 C-1.33 3.66 -1.66 4.32 -2 5 C-2 4.01 -2 3.02 -2 2 C-1.34 2 -0.68 2 0 2 C0 1.34 0 0.68 0 0 Z " fill="#C3D57D" transform="translate(132,230)"/>
<path d="M0 0 C0.66 0.33 1.32 0.66 2 1 C-0.52788007 3.79872437 -2.20411134 5.45773019 -6 6 C-6 5.34 -6 4.68 -6 4 C-5.34 4 -4.68 4 -4 4 C-4 3.34 -4 2.68 -4 2 C-2.68 2 -1.36 2 0 2 C0 1.34 0 0.68 0 0 Z " fill="#D2DEAB" transform="translate(158,148)"/>
<path d="M0 0 C0.66 0 1.32 0 2 0 C1.67 1.65 1.34 3.3 1 5 C-0.65 5.33 -2.3 5.66 -4 6 C-4 5.34 -4 4.68 -4 4 C-3.34 4 -2.68 4 -2 4 C-2 3.34 -2 2.68 -2 2 C-1.34 2 -0.68 2 0 2 C0 1.34 0 0.68 0 0 Z " fill="#9CC673" transform="translate(44,68)"/>
</svg>
